<svg width="48" height="37" viewBox="0 0 48 37" fill="none" xmlns="http://www.w3.org/2000/svg">
<mask id="path-1-inside-1_12_38" fill="white">
<path d="M19.4123 0.962994C21.7154 0.962994 23.9958 1.41661 26.1236 2.29794C28.2513 3.17927 30.1846 4.47105 31.8131 6.09954C33.4416 7.72803 34.7333 9.66132 35.6147 11.789C36.496 13.9168 36.9496 16.1972 36.9496 18.5003C36.9496 20.8033 36.496 23.0838 35.6147 25.2115C34.7333 27.3392 33.4416 29.2725 31.8131 30.901C30.1846 32.5295 28.2513 33.8212 26.1236 34.7026C23.9958 35.5839 21.7154 36.0375 19.4123 36.0375V29.4223C20.8466 29.4223 22.2669 29.1398 23.592 28.5909C24.9171 28.042 26.1212 27.2375 27.1354 26.2233C28.1496 25.2091 28.9541 24.0051 29.503 22.6799C30.0519 21.3548 30.3344 19.9346 30.3344 18.5003C30.3344 17.066 30.0519 15.6457 29.503 14.3206C28.9541 12.9955 28.1496 11.7914 27.1354 10.7772C26.1212 9.76301 24.9172 8.9585 23.592 8.40962C22.2669 7.86073 20.8466 7.57823 19.4123 7.57823L19.4123 0.962994Z"/>
</mask>
<path d="M19.4123 0.962994C21.7154 0.962994 23.9958 1.41661 26.1236 2.29794C28.2513 3.17927 30.1846 4.47105 31.8131 6.09954C33.4416 7.72803 34.7333 9.66132 35.6147 11.789C36.496 13.9168 36.9496 16.1972 36.9496 18.5003C36.9496 20.8033 36.496 23.0838 35.6147 25.2115C34.7333 27.3392 33.4416 29.2725 31.8131 30.901C30.1846 32.5295 28.2513 33.8212 26.1236 34.7026C23.9958 35.5839 21.7154 36.0375 19.4123 36.0375V29.4223C20.8466 29.4223 22.2669 29.1398 23.592 28.5909C24.9171 28.042 26.1212 27.2375 27.1354 26.2233C28.1496 25.2091 28.9541 24.0051 29.503 22.6799C30.0519 21.3548 30.3344 19.9346 30.3344 18.5003C30.3344 17.066 30.0519 15.6457 29.503 14.3206C28.9541 12.9955 28.1496 11.7914 27.1354 10.7772C26.1212 9.76301 24.9172 8.9585 23.592 8.40962C22.2669 7.86073 20.8466 7.57823 19.4123 7.57823L19.4123 0.962994Z" stroke="#2F327D" stroke-width="11.6915" mask="url(#path-1-inside-1_12_38)"/>
<rect x="19.4123" y="36.0375" width="6.50754" height="27.6846" transform="rotate(-90 19.4123 36.0375)" fill="#2F327D"/>
<rect x="19.4123" y="7.47045" width="6.50754" height="27.6846" transform="rotate(-90 19.4123 7.47045)" fill="#2F327D"/>
<rect x="31.9862" y="21.6986" width="6.50754" height="15.1107" transform="rotate(-90 31.9862 21.6986)" fill="#2F327D"/>
<mask id="path-5-inside-2_12_38" fill="white">
<path d="M17.5373 0.962955C15.2342 0.962955 12.9538 1.41657 10.826 2.2979C8.69832 3.17923 6.76503 4.47102 5.13655 6.0995C3.50806 7.72799 2.21627 9.66128 1.33494 11.789C0.453615 13.9167 -1.00668e-07 16.1972 0 18.5002C1.00669e-07 20.8032 0.453615 23.0837 1.33495 25.2114C2.21628 27.3392 3.50806 29.2725 5.13655 30.9009C6.76503 32.5294 8.69833 33.8212 10.826 34.7025C12.9538 35.5839 15.2342 36.0375 17.5373 36.0375V29.4223C16.103 29.4223 14.6827 29.1397 13.3576 28.5909C12.0325 28.042 10.8284 27.2375 9.81422 26.2233C8.80002 25.2091 7.99551 24.005 7.44662 22.6799C6.89774 21.3548 6.61523 19.9345 6.61523 18.5002C6.61523 17.0659 6.89774 15.6457 7.44662 14.3205C7.99551 12.9954 8.80002 11.7914 9.81422 10.7772C10.8284 9.76297 12.0325 8.95846 13.3576 8.40958C14.6827 7.86069 16.103 7.57819 17.5373 7.57819L17.5373 0.962955Z"/>
</mask>
<path d="M17.5373 0.962955C15.2342 0.962955 12.9538 1.41657 10.826 2.2979C8.69832 3.17923 6.76503 4.47102 5.13655 6.0995C3.50806 7.72799 2.21627 9.66128 1.33494 11.789C0.453615 13.9167 -1.00668e-07 16.1972 0 18.5002C1.00669e-07 20.8032 0.453615 23.0837 1.33495 25.2114C2.21628 27.3392 3.50806 29.2725 5.13655 30.9009C6.76503 32.5294 8.69833 33.8212 10.826 34.7025C12.9538 35.5839 15.2342 36.0375 17.5373 36.0375V29.4223C16.103 29.4223 14.6827 29.1397 13.3576 28.5909C12.0325 28.042 10.8284 27.2375 9.81422 26.2233C8.80002 25.2091 7.99551 24.005 7.44662 22.6799C6.89774 21.3548 6.61523 19.9345 6.61523 18.5002C6.61523 17.0659 6.89774 15.6457 7.44662 14.3205C7.99551 12.9954 8.80002 11.7914 9.81422 10.7772C10.8284 9.76297 12.0325 8.95846 13.3576 8.40958C14.6827 7.86069 16.103 7.57819 17.5373 7.57819L17.5373 0.962955Z" stroke="#F48C06" stroke-width="11.6915" mask="url(#path-5-inside-2_12_38)"/>
<rect x="6.06636" y="21.8089" width="6.50754" height="6.17665" transform="rotate(-90 6.06636 21.8089)" fill="#F48C06"/>
</svg>
