<svg width="347" height="97" viewBox="0 0 347 97" fill="none" xmlns="http://www.w3.org/2000/svg">
<rect x="0.5" y="10.3484" width="325" height="86.2007" rx="9.319" fill="white"/>
<rect x="1.08244" y="10.9308" width="323.835" height="85.0358" rx="8.73656" stroke="#F48C06" stroke-opacity="0.16" stroke-width="1.16487"/>
<mask id="mask0_1_1699" style="mask-type:alpha" maskUnits="userSpaceOnUse" x="13" y="27" width="53" height="53">
<rect x="13.7925" y="27.8217" width="51.2545" height="51.2545" rx="6.98925" fill="black"/>
</mask>
<g mask="url(#mask0_1_1699)">
<rect x="13.7925" y="27.8217" width="51.2545" height="51.2545" rx="6.98925" fill="white"/>
<rect x="14.2584" y="28.2876" width="50.3226" height="50.3226" rx="6.5233" stroke="#F48C06" stroke-opacity="0.4" stroke-width="0.9319"/>
<mask id="path-6-inside-1_1_1699" fill="white">
<path d="M37.6263 39.9929C39.1963 39.9929 40.751 40.3022 42.2016 40.903C43.6521 41.5038 44.9702 42.3845 46.0804 43.4947C47.1906 44.6049 48.0712 45.9229 48.6721 47.3735C49.2729 48.824 49.5822 50.3787 49.5822 51.9488C49.5822 53.5189 49.2729 55.0736 48.6721 56.5241C48.0712 57.9747 47.1906 59.2927 46.0804 60.4029C44.9702 61.5131 43.6521 62.3937 42.2016 62.9946C40.751 63.5954 39.1963 63.9047 37.6263 63.9047V59.3948C38.6041 59.3948 39.5724 59.2022 40.4757 58.828C41.3791 58.4538 42.2 57.9053 42.8914 57.2139C43.5828 56.5225 44.1313 55.7016 44.5055 54.7983C44.8797 53.8949 45.0723 52.9266 45.0723 51.9488C45.0723 50.971 44.8797 50.0027 44.5055 49.0993C44.1313 48.1959 43.5828 47.3751 42.8914 46.6837C42.2 45.9923 41.3791 45.4438 40.4757 45.0696C39.5724 44.6954 38.6041 44.5028 37.6263 44.5028V39.9929Z"/>
</mask>
<path d="M37.6263 39.9929C39.1963 39.9929 40.751 40.3022 42.2016 40.903C43.6521 41.5038 44.9702 42.3845 46.0804 43.4947C47.1906 44.6049 48.0712 45.9229 48.6721 47.3735C49.2729 48.824 49.5822 50.3787 49.5822 51.9488C49.5822 53.5189 49.2729 55.0736 48.6721 56.5241C48.0712 57.9747 47.1906 59.2927 46.0804 60.4029C44.9702 61.5131 43.6521 62.3937 42.2016 62.9946C40.751 63.5954 39.1963 63.9047 37.6263 63.9047V59.3948C38.6041 59.3948 39.5724 59.2022 40.4757 58.828C41.3791 58.4538 42.2 57.9053 42.8914 57.2139C43.5828 56.5225 44.1313 55.7016 44.5055 54.7983C44.8797 53.8949 45.0723 52.9266 45.0723 51.9488C45.0723 50.971 44.8797 50.0027 44.5055 49.0993C44.1313 48.1959 43.5828 47.3751 42.8914 46.6837C42.2 45.9923 41.3791 45.4438 40.4757 45.0696C39.5724 44.6954 38.6041 44.5028 37.6263 44.5028V39.9929Z" stroke="#2F327D" stroke-width="7.97058" mask="url(#path-6-inside-1_1_1699)"/>
<rect x="37.6262" y="63.9047" width="4.43645" height="18.8737" transform="rotate(-90 37.6262 63.9047)" fill="#2F327D"/>
<rect x="37.6262" y="44.4294" width="4.43645" height="18.8737" transform="rotate(-90 37.6262 44.4294)" fill="#2F327D"/>
<rect x="46.1984" y="54.1293" width="4.43645" height="10.3016" transform="rotate(-90 46.1984 54.1293)" fill="#2F327D"/>
<mask id="path-10-inside-2_1_1699" fill="white">
<path d="M36.348 39.9929C34.7779 39.9929 33.2232 40.3022 31.7726 40.903C30.3221 41.5038 29.0041 42.3845 27.8939 43.4947C26.7837 44.6049 25.903 45.9229 25.3022 47.3735C24.7013 48.824 24.3921 50.3787 24.3921 51.9488C24.3921 53.5189 24.7013 55.0736 25.3022 56.5241C25.903 57.9747 26.7837 59.2927 27.8939 60.4029C29.0041 61.5131 30.3221 62.3937 31.7726 62.9946C33.2232 63.5954 34.7779 63.9047 36.348 63.9047V59.3948C35.3701 59.3948 34.4019 59.2022 33.4985 58.828C32.5951 58.4538 31.7743 57.9053 31.0828 57.2139C30.3914 56.5225 29.843 55.7016 29.4688 54.7983C29.0946 53.8949 28.902 52.9266 28.902 51.9488C28.902 50.971 29.0946 50.0027 29.4688 49.0993C29.843 48.1959 30.3914 47.3751 31.0828 46.6837C31.7743 45.9923 32.5951 45.4438 33.4985 45.0696C34.4019 44.6954 35.3701 44.5028 36.348 44.5028V39.9929Z"/>
</mask>
<path d="M36.348 39.9929C34.7779 39.9929 33.2232 40.3022 31.7726 40.903C30.3221 41.5038 29.0041 42.3845 27.8939 43.4947C26.7837 44.6049 25.903 45.9229 25.3022 47.3735C24.7013 48.824 24.3921 50.3787 24.3921 51.9488C24.3921 53.5189 24.7013 55.0736 25.3022 56.5241C25.903 57.9747 26.7837 59.2927 27.8939 60.4029C29.0041 61.5131 30.3221 62.3937 31.7726 62.9946C33.2232 63.5954 34.7779 63.9047 36.348 63.9047V59.3948C35.3701 59.3948 34.4019 59.2022 33.4985 58.828C32.5951 58.4538 31.7743 57.9053 31.0828 57.2139C30.3914 56.5225 29.843 55.7016 29.4688 54.7983C29.0946 53.8949 28.902 52.9266 28.902 51.9488C28.902 50.971 29.0946 50.0027 29.4688 49.0993C29.843 48.1959 30.3914 47.3751 31.0828 46.6837C31.7743 45.9923 32.5951 45.4438 33.4985 45.0696C34.4019 44.6954 35.3701 44.5028 36.348 44.5028V39.9929Z" stroke="#F48C06" stroke-width="7.97058" mask="url(#path-10-inside-2_1_1699)"/>
<rect x="28.5278" y="54.2045" width="4.43645" height="4.21087" transform="rotate(-90 28.5278 54.2045)" fill="#F48C06"/>
</g>
<path d="M88.7186 49.1009C88.2268 49.6947 87.6469 50.1493 86.9789 50.4648C86.3108 50.771 85.5639 50.9241 84.7381 50.9241C83.9958 50.9241 83.3045 50.7896 82.6643 50.5205C82.0334 50.2514 81.4859 49.8849 81.022 49.421C80.5581 48.957 80.1916 48.4096 79.9225 47.7787C79.6534 47.1384 79.5189 46.4518 79.5189 45.7188C79.5189 44.9858 79.6534 44.3038 79.9225 43.6729C80.1916 43.0327 80.5581 42.4806 81.022 42.0166C81.4859 41.5527 82.0334 41.1862 82.6643 40.9171C83.3045 40.6481 83.9958 40.5135 84.7381 40.5135C85.536 40.5135 86.2366 40.6527 86.8397 40.9311C87.4521 41.2094 87.9949 41.613 88.4681 42.1419L87.1459 43.4224C86.849 43.079 86.5057 42.8053 86.116 42.6012C85.7355 42.3971 85.2809 42.295 84.752 42.295C84.2881 42.295 83.852 42.3785 83.4437 42.5455C83.0355 42.7033 82.6782 42.9306 82.372 43.2275C82.0751 43.5244 81.8385 43.8863 81.6622 44.3131C81.4859 44.7306 81.3978 45.1992 81.3978 45.7188C81.3978 46.2384 81.4859 46.7116 81.6622 47.1384C81.8385 47.556 82.0751 47.9132 82.372 48.2101C82.6782 48.507 83.0355 48.739 83.4437 48.906C83.852 49.0637 84.2881 49.1426 84.752 49.1426C85.3087 49.1426 85.8005 49.0313 86.2273 48.8086C86.6634 48.5766 87.0484 48.2519 87.3825 47.8343L88.7186 49.1009ZM92.683 43.659C93.2119 43.659 93.6944 43.7517 94.1305 43.9373C94.5759 44.1136 94.9563 44.3641 95.2718 44.6889C95.5965 45.0044 95.847 45.3848 96.0233 45.8302C96.2089 46.2755 96.3017 46.7627 96.3017 47.2915C96.3017 47.8204 96.2089 48.3075 96.0233 48.7529C95.847 49.1983 95.5965 49.5833 95.2718 49.9081C94.9563 50.2236 94.5759 50.4741 94.1305 50.6597C93.6944 50.836 93.2119 50.9241 92.683 50.9241C92.1541 50.9241 91.667 50.836 91.2216 50.6597C90.7855 50.4741 90.4051 50.2236 90.0804 49.9081C89.7649 49.5833 89.5144 49.1983 89.3288 48.7529C89.1525 48.3075 89.0644 47.8204 89.0644 47.2915C89.0644 46.7627 89.1525 46.2755 89.3288 45.8302C89.5144 45.3848 89.7649 45.0044 90.0804 44.6889C90.4051 44.3641 90.7855 44.1136 91.2216 43.9373C91.667 43.7517 92.1541 43.659 92.683 43.659ZM92.683 49.24C92.915 49.24 93.1377 49.1983 93.3511 49.1148C93.5738 49.022 93.7686 48.8921 93.9356 48.7251C94.1026 48.5581 94.2325 48.3539 94.3253 48.1127C94.4274 47.8714 94.4784 47.5977 94.4784 47.2915C94.4784 46.9853 94.4274 46.7116 94.3253 46.4704C94.2325 46.2291 94.1026 46.025 93.9356 45.858C93.7686 45.691 93.5738 45.5657 93.3511 45.4822C93.1377 45.3894 92.915 45.343 92.683 45.343C92.4418 45.343 92.2145 45.3894 92.001 45.4822C91.7876 45.5657 91.5974 45.691 91.4304 45.858C91.2634 46.025 91.1289 46.2291 91.0268 46.4704C90.934 46.7116 90.8876 46.9853 90.8876 47.2915C90.8876 47.5977 90.934 47.8714 91.0268 48.1127C91.1289 48.3539 91.2634 48.5581 91.4304 48.7251C91.5974 48.8921 91.7876 49.022 92.001 49.1148C92.2145 49.1983 92.4418 49.24 92.683 49.24ZM98.7708 44.7724H98.8821C99.0955 44.4291 99.3832 44.16 99.745 43.9652C100.107 43.761 100.52 43.659 100.984 43.659C101.411 43.659 101.786 43.7286 102.111 43.8677C102.436 44.0069 102.7 44.2064 102.904 44.4662C103.118 44.7167 103.276 45.0229 103.378 45.3848C103.489 45.7374 103.545 46.1317 103.545 46.5678L103.545 50.7014H101.721L101.721 46.7905C101.721 46.2987 101.61 45.9369 101.387 45.7049C101.174 45.4636 100.858 45.343 100.441 45.343C100.19 45.343 99.9677 45.3987 99.7729 45.51C99.5873 45.6121 99.4249 45.7559 99.2858 45.9415C99.1559 46.1178 99.0538 46.3312 98.9796 46.5817C98.9146 46.823 98.8821 47.0828 98.8821 47.3611L98.8821 50.7014H97.0589L97.0589 43.8816H98.7708L98.7708 44.7724ZM107.85 53.9304C107.367 53.9304 106.936 53.8654 106.556 53.7355C106.184 53.6149 105.86 53.4525 105.581 53.2484C105.303 53.0535 105.071 52.8355 104.885 52.5942C104.7 52.353 104.565 52.1118 104.482 51.8705L106.222 51.1746C106.351 51.5365 106.565 51.8148 106.862 52.0097C107.159 52.2138 107.488 52.3159 107.85 52.3159C108.425 52.3159 108.88 52.135 109.214 51.7731C109.548 51.4205 109.715 50.9241 109.715 50.2839L109.715 49.8107H109.604C109.39 50.1076 109.107 50.3442 108.755 50.5205C108.411 50.6875 108.003 50.771 107.53 50.771C107.122 50.771 106.723 50.6875 106.333 50.5205C105.952 50.3535 105.614 50.1169 105.317 49.8107C105.02 49.4952 104.779 49.1194 104.593 48.6833C104.408 48.2472 104.315 47.7601 104.315 47.2219C104.315 46.6838 104.408 46.1967 104.593 45.7606C104.779 45.3152 105.02 44.9394 105.317 44.6332C105.614 44.3177 105.952 44.0765 106.333 43.9095C106.723 43.7425 107.122 43.659 107.53 43.659C108.003 43.659 108.411 43.7471 108.755 43.9234C109.107 44.0904 109.39 44.3224 109.604 44.6193H109.715L109.715 43.8816H111.455L111.455 50.2143C111.455 50.7896 111.367 51.3045 111.19 51.7592C111.014 52.2231 110.768 52.6128 110.453 52.9283C110.137 53.253 109.757 53.4989 109.311 53.6659C108.875 53.8422 108.388 53.9304 107.85 53.9304ZM107.92 49.1287C108.142 49.1287 108.36 49.0869 108.574 49.0034C108.796 48.9199 108.991 48.7993 109.158 48.6416C109.325 48.4746 109.46 48.2751 109.562 48.0431C109.664 47.8019 109.715 47.5281 109.715 47.2219C109.715 46.9157 109.664 46.642 109.562 46.4008C109.46 46.1595 109.325 45.9601 109.158 45.8023C108.991 45.6353 108.796 45.51 108.574 45.4265C108.36 45.343 108.142 45.3013 107.92 45.3013C107.697 45.3013 107.479 45.343 107.265 45.4265C107.052 45.51 106.862 45.6353 106.695 45.8023C106.528 45.9693 106.393 46.1735 106.291 46.4147C106.189 46.6467 106.138 46.9157 106.138 47.2219C106.138 47.5281 106.189 47.8019 106.291 48.0431C106.393 48.2751 106.528 48.4746 106.695 48.6416C106.862 48.7993 107.052 48.9199 107.265 49.0034C107.479 49.0869 107.697 49.1287 107.92 49.1287ZM112.731 43.8816H114.443L114.443 44.8281H114.554C114.637 44.661 114.749 44.508 114.888 44.3688C115.027 44.2296 115.18 44.109 115.347 44.0069C115.524 43.9048 115.709 43.826 115.904 43.7703C116.108 43.7146 116.308 43.6868 116.502 43.6868C116.744 43.6868 116.948 43.71 117.115 43.7564C117.291 43.8028 117.44 43.8631 117.56 43.9373L117.073 45.5935C116.962 45.5379 116.836 45.4961 116.697 45.4683C116.567 45.4312 116.405 45.4126 116.21 45.4126C115.96 45.4126 115.732 45.4636 115.528 45.5657C115.324 45.6585 115.148 45.793 114.999 45.9693C114.86 46.1456 114.749 46.3544 114.665 46.5956C114.591 46.8276 114.554 47.0828 114.554 47.3611L114.554 50.7014H112.731L112.731 43.8816ZM122.051 49.9777H121.94C121.727 50.2375 121.467 50.4602 121.161 50.6457C120.864 50.8313 120.479 50.9241 120.005 50.9241C119.653 50.9241 119.319 50.8638 119.003 50.7432C118.697 50.6318 118.428 50.4741 118.196 50.27C117.964 50.0658 117.783 49.8199 117.653 49.5323C117.523 49.2447 117.459 48.9292 117.459 48.5859C117.459 48.2333 117.528 47.9178 117.667 47.6395C117.806 47.3518 118.001 47.106 118.252 46.9018C118.502 46.6977 118.795 46.5446 119.129 46.4425C119.472 46.3312 119.843 46.2755 120.242 46.2755C120.687 46.2755 121.054 46.3126 121.342 46.3869C121.629 46.4518 121.866 46.5214 122.051 46.5956L122.051 46.3869C122.051 46.025 121.908 45.7281 121.62 45.4961C121.332 45.2549 120.975 45.1343 120.548 45.1343C119.917 45.1343 119.384 45.3987 118.948 45.9276L117.626 45.0229C118.349 44.1136 119.337 43.659 120.59 43.659C121.648 43.659 122.455 43.9095 123.012 44.4105C123.568 44.9023 123.847 45.6353 123.847 46.6096L123.847 50.7014H122.051L122.051 49.9777ZM122.051 47.9318C121.838 47.8297 121.615 47.7508 121.383 47.6952C121.161 47.6302 120.915 47.5977 120.646 47.5977C120.21 47.5977 119.871 47.6952 119.63 47.89C119.398 48.0756 119.282 48.3075 119.282 48.5859C119.282 48.8643 119.393 49.0869 119.616 49.254C119.848 49.421 120.112 49.5045 120.409 49.5045C120.65 49.5045 120.873 49.4627 121.077 49.3792C121.281 49.2864 121.453 49.1704 121.592 49.0313C121.741 48.8828 121.852 48.7158 121.926 48.5302C122.01 48.3354 122.051 48.1359 122.051 47.9318ZM125.634 45.4405H124.437L124.437 43.8816H125.634L125.634 41.794H127.457L127.457 43.8816H129.127L129.127 45.4405H127.457L127.457 48.0849C127.457 48.2426 127.471 48.391 127.499 48.5302C127.536 48.6601 127.601 48.7715 127.694 48.8643C127.823 49.0127 128.009 49.0869 128.25 49.0869C128.408 49.0869 128.533 49.073 128.626 49.0452C128.719 49.0081 128.807 48.9617 128.891 48.906L129.405 50.5066C129.192 50.6086 128.96 50.6829 128.71 50.7293C128.468 50.7849 128.199 50.8128 127.902 50.8128C127.559 50.8128 127.248 50.7617 126.97 50.6597C126.701 50.5483 126.473 50.3999 126.288 50.2143C125.852 49.7968 125.634 49.2029 125.634 48.4328L125.634 45.4405ZM134.908 49.8107H134.797C134.583 50.154 134.296 50.4277 133.934 50.6318C133.572 50.8267 133.159 50.9241 132.695 50.9241C131.832 50.9241 131.187 50.6597 130.761 50.1308C130.343 49.6019 130.134 48.8967 130.134 48.0153L130.134 43.8816H131.958L131.958 47.7926C131.958 48.2843 132.064 48.6508 132.278 48.8921C132.5 49.1241 132.82 49.24 133.238 49.24C133.489 49.24 133.707 49.189 133.892 49.0869C134.087 48.9756 134.249 48.8318 134.379 48.6555C134.518 48.4699 134.621 48.2565 134.685 48.0153C134.76 47.7647 134.797 47.5003 134.797 47.2219L134.797 43.8816H136.62L136.62 50.7014H134.908L134.908 49.8107ZM137.904 50.7014L137.904 40.7362H139.727L139.727 50.7014H137.904ZM145.145 49.9777H145.033C144.82 50.2375 144.56 50.4602 144.254 50.6457C143.957 50.8313 143.572 50.9241 143.099 50.9241C142.746 50.9241 142.412 50.8638 142.097 50.7432C141.791 50.6318 141.521 50.4741 141.29 50.27C141.058 50.0658 140.877 49.8199 140.747 49.5323C140.617 49.2447 140.552 48.9292 140.552 48.5859C140.552 48.2333 140.621 47.9178 140.761 47.6395C140.9 47.3518 141.095 47.106 141.345 46.9018C141.596 46.6977 141.888 46.5446 142.222 46.4425C142.565 46.3312 142.936 46.2755 143.335 46.2755C143.781 46.2755 144.147 46.3126 144.435 46.3869C144.723 46.4518 144.959 46.5214 145.145 46.5956L145.145 46.3869C145.145 46.025 145.001 45.7281 144.713 45.4961C144.426 45.2549 144.068 45.1343 143.642 45.1343C143.011 45.1343 142.477 45.3987 142.041 45.9276L140.719 45.0229C141.443 44.1136 142.431 43.659 143.683 43.659C144.741 43.659 145.548 43.9095 146.105 44.4105C146.662 44.9023 146.94 45.6353 146.94 46.6096L146.94 50.7014H145.145L145.145 49.9777ZM145.145 47.9318C144.931 47.8297 144.709 47.7508 144.477 47.6952C144.254 47.6302 144.008 47.5977 143.739 47.5977C143.303 47.5977 142.964 47.6952 142.723 47.89C142.491 48.0756 142.375 48.3075 142.375 48.5859C142.375 48.8643 142.486 49.0869 142.709 49.254C142.941 49.421 143.206 49.5045 143.502 49.5045C143.744 49.5045 143.966 49.4627 144.171 49.3792C144.375 49.2864 144.546 49.1704 144.685 49.0313C144.834 48.8828 144.945 48.7158 145.02 48.5302C145.103 48.3354 145.145 48.1359 145.145 47.9318ZM148.727 45.4405H147.53L147.53 43.8816H148.727L148.727 41.794H150.55L150.55 43.8816H152.221L152.221 45.4405H150.55L150.55 48.0849C150.55 48.2426 150.564 48.391 150.592 48.5302C150.629 48.6601 150.694 48.7715 150.787 48.8643C150.917 49.0127 151.102 49.0869 151.344 49.0869C151.501 49.0869 151.627 49.073 151.719 49.0452C151.812 49.0081 151.9 48.9617 151.984 48.906L152.499 50.5066C152.285 50.6086 152.053 50.6829 151.803 50.7293C151.562 50.7849 151.293 50.8128 150.996 50.8128C150.652 50.8128 150.342 50.7617 150.063 50.6597C149.794 50.5483 149.567 50.3999 149.381 50.2143C148.945 49.7968 148.727 49.2029 148.727 48.4328L148.727 45.4405ZM154.367 42.8935C154.21 42.8935 154.057 42.8656 153.908 42.81C153.769 42.745 153.644 42.6615 153.532 42.5594C153.43 42.4481 153.347 42.3228 153.282 42.1837C153.226 42.0445 153.198 41.8914 153.198 41.7244C153.198 41.5574 153.226 41.4043 153.282 41.2651C153.347 41.1259 153.43 41.0053 153.532 40.9032C153.644 40.7919 153.769 40.7084 153.908 40.6527C154.057 40.5877 154.21 40.5553 154.367 40.5553C154.692 40.5553 154.97 40.6713 155.202 40.9032C155.434 41.1259 155.55 41.3996 155.55 41.7244C155.55 42.0491 155.434 42.3275 155.202 42.5594C154.97 42.7821 154.692 42.8935 154.367 42.8935ZM153.463 50.7014L153.463 43.8816H155.286L155.286 50.7014H153.463ZM159.836 43.659C160.365 43.659 160.847 43.7517 161.283 43.9373C161.729 44.1136 162.109 44.3641 162.425 44.6889C162.749 45.0044 163 45.3848 163.176 45.8302C163.362 46.2755 163.454 46.7627 163.454 47.2915C163.454 47.8204 163.362 48.3075 163.176 48.7529C163 49.1983 162.749 49.5833 162.425 49.9081C162.109 50.2236 161.729 50.4741 161.283 50.6597C160.847 50.836 160.365 50.9241 159.836 50.9241C159.307 50.9241 158.82 50.836 158.374 50.6597C157.938 50.4741 157.558 50.2236 157.233 49.9081C156.918 49.5833 156.667 49.1983 156.482 48.7529C156.305 48.3075 156.217 47.8204 156.217 47.2915C156.217 46.7627 156.305 46.2755 156.482 45.8302C156.667 45.3848 156.918 45.0044 157.233 44.6889C157.558 44.3641 157.938 44.1136 158.374 43.9373C158.82 43.7517 159.307 43.659 159.836 43.659ZM159.836 49.24C160.068 49.24 160.29 49.1983 160.504 49.1148C160.727 49.022 160.921 48.8921 161.088 48.7251C161.255 48.5581 161.385 48.3539 161.478 48.1127C161.58 47.8714 161.631 47.5977 161.631 47.2915C161.631 46.9853 161.58 46.7116 161.478 46.4704C161.385 46.2291 161.255 46.025 161.088 45.858C160.921 45.691 160.727 45.5657 160.504 45.4822C160.29 45.3894 160.068 45.343 159.836 45.343C159.595 45.343 159.367 45.3894 159.154 45.4822C158.94 45.5657 158.75 45.691 158.583 45.858C158.416 46.025 158.282 46.2291 158.18 46.4704C158.087 46.7116 158.04 46.9853 158.04 47.2915C158.04 47.5977 158.087 47.8714 158.18 48.1127C158.282 48.3539 158.416 48.5581 158.583 48.7251C158.75 48.8921 158.94 49.022 159.154 49.1148C159.367 49.1983 159.595 49.24 159.836 49.24ZM165.924 44.7724H166.035C166.248 44.4291 166.536 44.16 166.898 43.9652C167.26 43.761 167.673 43.659 168.136 43.659C168.563 43.659 168.939 43.7286 169.264 43.8677C169.589 44.0069 169.853 44.2064 170.057 44.4662C170.271 44.7167 170.428 45.0229 170.53 45.3848C170.642 45.7374 170.697 46.1317 170.697 46.5678L170.697 50.7014H168.874L168.874 46.7905C168.874 46.2987 168.763 45.9369 168.54 45.7049C168.327 45.4636 168.011 45.343 167.594 45.343C167.343 45.343 167.12 45.3987 166.926 45.51C166.74 45.6121 166.578 45.7559 166.439 45.9415C166.309 46.1178 166.207 46.3312 166.132 46.5817C166.067 46.823 166.035 47.0828 166.035 47.3611L166.035 50.7014H164.212L164.212 43.8816H165.924L165.924 44.7724ZM174.557 50.9241C174.112 50.9241 173.713 50.8684 173.36 50.7571C173.017 50.6457 172.716 50.5019 172.456 50.3256C172.205 50.1401 171.992 49.9313 171.815 49.6993C171.639 49.4581 171.505 49.2168 171.412 48.9756L173.04 48.2797C173.198 48.6323 173.407 48.8967 173.667 49.073C173.936 49.24 174.233 49.3235 174.557 49.3235C174.891 49.3235 175.156 49.2632 175.351 49.1426C175.545 49.022 175.643 48.8782 175.643 48.7112C175.643 48.5256 175.559 48.3771 175.392 48.2658C175.235 48.1452 174.956 48.0385 174.557 47.9457L173.597 47.7369C173.384 47.6905 173.161 47.6163 172.929 47.5142C172.706 47.4122 172.502 47.2823 172.317 47.1245C172.131 46.9668 171.978 46.7766 171.857 46.5539C171.737 46.3312 171.676 46.0714 171.676 45.7745C171.676 45.4405 171.746 45.1435 171.885 44.8837C172.034 44.6239 172.233 44.4059 172.484 44.2296C172.734 44.044 173.026 43.9048 173.36 43.8121C173.704 43.71 174.07 43.659 174.46 43.659C175.109 43.659 175.689 43.7889 176.2 44.0487C176.71 44.2992 177.086 44.7028 177.327 45.2595L175.754 45.8997C175.624 45.6307 175.434 45.4358 175.184 45.3152C174.933 45.1946 174.683 45.1343 174.432 45.1343C174.172 45.1343 173.945 45.1899 173.75 45.3013C173.555 45.4033 173.458 45.5379 173.458 45.7049C173.458 45.8626 173.537 45.9879 173.694 46.0807C173.861 46.1735 174.084 46.257 174.362 46.3312L175.406 46.5817C176.102 46.7487 176.617 47.0178 176.951 47.389C177.295 47.7508 177.466 48.1823 177.466 48.6833C177.466 48.9802 177.397 49.2632 177.257 49.5323C177.118 49.8014 176.919 50.0426 176.659 50.256C176.408 50.4602 176.102 50.6225 175.74 50.7432C175.388 50.8638 174.993 50.9241 174.557 50.9241ZM183.271 46.0668L179.917 40.7362H182.158L184.148 44.0347H184.259L186.18 40.7362H188.449L185.15 46.0668L185.15 50.7014H183.271L183.271 46.0668ZM190.955 43.659C191.484 43.659 191.967 43.7517 192.403 43.9373C192.848 44.1136 193.229 44.3641 193.544 44.6889C193.869 45.0044 194.119 45.3848 194.296 45.8302C194.481 46.2755 194.574 46.7627 194.574 47.2915C194.574 47.8204 194.481 48.3075 194.296 48.7529C194.119 49.1983 193.869 49.5833 193.544 49.9081C193.229 50.2236 192.848 50.4741 192.403 50.6597C191.967 50.836 191.484 50.9241 190.955 50.9241C190.426 50.9241 189.939 50.836 189.494 50.6597C189.058 50.4741 188.677 50.2236 188.353 49.9081C188.037 49.5833 187.787 49.1983 187.601 48.7529C187.425 48.3075 187.337 47.8204 187.337 47.2915C187.337 46.7627 187.425 46.2755 187.601 45.8302C187.787 45.3848 188.037 45.0044 188.353 44.6889C188.677 44.3641 189.058 44.1136 189.494 43.9373C189.939 43.7517 190.426 43.659 190.955 43.659ZM190.955 49.24C191.187 49.24 191.41 49.1983 191.623 49.1148C191.846 49.022 192.041 48.8921 192.208 48.7251C192.375 48.5581 192.505 48.3539 192.598 48.1127C192.7 47.8714 192.751 47.5977 192.751 47.2915C192.751 46.9853 192.7 46.7116 192.598 46.4704C192.505 46.2291 192.375 46.025 192.208 45.858C192.041 45.691 191.846 45.5657 191.623 45.4822C191.41 45.3894 191.187 45.343 190.955 45.343C190.714 45.343 190.487 45.3894 190.273 45.4822C190.06 45.5657 189.87 45.691 189.703 45.858C189.536 46.025 189.401 46.2291 189.299 46.4704C189.206 46.7116 189.16 46.9853 189.16 47.2915C189.16 47.5977 189.206 47.8714 189.299 48.1127C189.401 48.3539 189.536 48.5581 189.703 48.7251C189.87 48.8921 190.06 49.022 190.273 49.1148C190.487 49.1983 190.714 49.24 190.955 49.24ZM200.117 49.8107H200.006C199.793 50.154 199.505 50.4277 199.143 50.6318C198.781 50.8267 198.368 50.9241 197.904 50.9241C197.041 50.9241 196.397 50.6597 195.97 50.1308C195.552 49.6019 195.343 48.8967 195.343 48.0153L195.343 43.8816H197.167L197.167 47.7926C197.167 48.2843 197.273 48.6508 197.487 48.8921C197.71 49.1241 198.03 49.24 198.447 49.24C198.698 49.24 198.916 49.189 199.101 49.0869C199.296 48.9756 199.459 48.8318 199.588 48.6555C199.728 48.4699 199.83 48.2565 199.895 48.0153C199.969 47.7647 200.006 47.5003 200.006 47.2219L200.006 43.8816H201.829L201.829 50.7014H200.117L200.117 49.8107ZM203.029 43.8956L203.739 42.81C203.535 42.7357 203.359 42.6058 203.21 42.4203C203.071 42.2254 203.001 41.9935 203.001 41.7244C203.001 41.3903 203.117 41.1073 203.349 40.8754C203.591 40.6341 203.878 40.5135 204.212 40.5135C204.546 40.5135 204.829 40.6341 205.061 40.8754C205.293 41.1073 205.409 41.3903 205.409 41.7244C205.409 41.9007 205.377 42.0584 205.312 42.1976C205.256 42.3368 205.173 42.4852 205.061 42.643L203.85 44.4384L203.029 43.8956ZM206.151 43.8816H207.863L207.863 44.8281H207.974C208.057 44.661 208.169 44.508 208.308 44.3688C208.447 44.2296 208.6 44.109 208.767 44.0069C208.944 43.9048 209.129 43.826 209.324 43.7703C209.528 43.7146 209.728 43.6868 209.922 43.6868C210.164 43.6868 210.368 43.71 210.535 43.7564C210.711 43.8028 210.86 43.8631 210.98 43.9373L210.493 45.5935C210.382 45.5379 210.257 45.4961 210.117 45.4683C209.987 45.4312 209.825 45.4126 209.63 45.4126C209.38 45.4126 209.152 45.4636 208.948 45.5657C208.744 45.6585 208.568 45.793 208.419 45.9693C208.28 46.1456 208.169 46.3544 208.085 46.5956C208.011 46.8276 207.974 47.0828 207.974 47.3611L207.974 50.7014H206.151L206.151 43.8816ZM217.577 49.0591C217.261 49.6158 216.834 50.0658 216.296 50.4091C215.767 50.7524 215.118 50.9241 214.348 50.9241C213.828 50.9241 213.346 50.836 212.9 50.6597C212.464 50.4741 212.084 50.2189 211.759 49.8942C211.434 49.5694 211.179 49.189 210.993 48.7529C210.817 48.3075 210.729 47.8204 210.729 47.2915C210.729 46.7998 210.817 46.3358 210.993 45.8997C211.17 45.4544 211.416 45.0693 211.731 44.7446C212.047 44.4105 212.418 44.1461 212.845 43.9512C213.281 43.7564 213.759 43.659 214.278 43.659C214.826 43.659 215.313 43.7517 215.739 43.9373C216.166 44.1136 216.524 44.3641 216.811 44.6889C217.099 45.0044 217.317 45.3801 217.465 45.8162C217.614 46.2523 217.688 46.7255 217.688 47.2359C217.688 47.3008 217.688 47.3565 217.688 47.4029C217.679 47.4585 217.674 47.5096 217.674 47.556C217.665 47.6024 217.66 47.6534 217.66 47.7091H212.524C212.562 47.9874 212.636 48.2287 212.747 48.4328C212.868 48.6276 213.012 48.7947 213.179 48.9338C213.355 49.0637 213.545 49.1612 213.749 49.2261C213.953 49.2818 214.162 49.3096 214.376 49.3096C214.793 49.3096 215.136 49.2168 215.405 49.0313C215.684 48.8364 215.902 48.5952 216.06 48.3075L217.577 49.0591ZM215.92 46.4147C215.911 46.2941 215.869 46.1595 215.795 46.0111C215.73 45.8626 215.628 45.7234 215.489 45.5935C215.359 45.4636 215.192 45.3569 214.988 45.2734C214.793 45.1899 214.556 45.1482 214.278 45.1482C213.888 45.1482 213.545 45.2595 213.248 45.4822C212.951 45.7049 212.743 46.0157 212.622 46.4147H215.92ZM221.577 40.7362H223.455L223.455 50.7014H221.577L221.577 40.7362ZM226.675 44.7724H226.786C226.999 44.4291 227.287 44.16 227.649 43.9652C228.011 43.761 228.424 43.659 228.888 43.659C229.314 43.659 229.69 43.7286 230.015 43.8677C230.34 44.0069 230.604 44.2064 230.808 44.4662C231.022 44.7167 231.179 45.0229 231.281 45.3848C231.393 45.7374 231.448 46.1317 231.448 46.5678L231.448 50.7014H229.625L229.625 46.7905C229.625 46.2987 229.514 45.9369 229.291 45.7049C229.078 45.4636 228.762 45.343 228.345 45.343C228.094 45.343 227.872 45.3987 227.677 45.51C227.491 45.6121 227.329 45.7559 227.19 45.9415C227.06 46.1178 226.958 46.3312 226.883 46.5817C226.818 46.823 226.786 47.0828 226.786 47.3611L226.786 50.7014H224.963L224.963 43.8816H226.675L226.675 44.7724ZM233.776 50.7849C233.442 50.7849 233.154 50.6689 232.913 50.437C232.681 50.1957 232.565 49.9081 232.565 49.5741C232.565 49.24 232.681 48.957 232.913 48.7251C233.154 48.4931 233.442 48.3771 233.776 48.3771C234.11 48.3771 234.393 48.4931 234.625 48.7251C234.857 48.957 234.973 49.24 234.973 49.5741C234.973 49.9081 234.857 50.1957 234.625 50.437C234.393 50.6689 234.11 50.7849 233.776 50.7849ZM232.829 43.6033L232.829 40.7362H234.708L234.708 43.6033L234.513 47.2776H233.024L232.829 43.6033Z" fill="url(#paint0_linear_1_1699)"/>
<path d="M82.8154 65.3451C81.8276 65.3451 81.0013 65.0128 80.3365 64.348C79.678 63.6833 79.3487 62.8539 79.3487 61.8598C79.3487 60.8658 79.678 60.0395 80.3365 59.381C80.9951 58.71 81.8213 58.3745 82.8154 58.3745C83.8218 58.3745 84.6388 58.738 85.2663 59.4649L84.6512 60.0613C84.1728 59.4835 83.5609 59.1946 82.8154 59.1946C82.0761 59.1946 81.4579 59.4431 80.9609 59.9401C80.4701 60.4309 80.2247 61.0708 80.2247 61.8598C80.2247 62.6489 80.4701 63.2888 80.9609 63.7796C81.4579 64.2766 82.0761 64.5251 82.8154 64.5251C83.592 64.5251 84.266 64.1989 84.8376 63.5466L85.462 64.1523C85.1451 64.5313 84.7568 64.8264 84.2971 65.0376C83.8374 65.2426 83.3435 65.3451 82.8154 65.3451ZM86.0582 62.9129C86.0582 62.2109 86.2788 61.63 86.7199 61.1702C87.1672 60.7105 87.7294 60.4806 88.4066 60.4806C89.0838 60.4806 89.6429 60.7105 90.084 61.1702C90.5314 61.63 90.755 62.2109 90.755 62.9129C90.755 63.6211 90.5314 64.202 90.084 64.6555C89.6429 65.1153 89.0838 65.3451 88.4066 65.3451C87.7294 65.3451 87.1672 65.1153 86.7199 64.6555C86.2788 64.1958 86.0582 63.6149 86.0582 62.9129ZM86.9156 62.9129C86.9156 63.4037 87.0585 63.8013 87.3443 64.1057C87.63 64.4101 87.9842 64.5624 88.4066 64.5624C88.8291 64.5624 89.1832 64.4101 89.469 64.1057C89.7548 63.8013 89.8977 63.4037 89.8977 62.9129C89.8977 62.4283 89.7548 62.0338 89.469 61.7294C89.177 61.4187 88.8229 61.2634 88.4066 61.2634C87.9904 61.2634 87.6363 61.4187 87.3443 61.7294C87.0585 62.0338 86.9156 62.4283 86.9156 62.9129ZM91.6292 60.6297H92.4493L92.4493 61.2634H92.4865C92.617 61.0398 92.8158 60.8534 93.0829 60.7043C93.3563 60.5552 93.639 60.4806 93.931 60.4806C94.4901 60.4806 94.9188 60.6422 95.217 60.9652C95.5214 61.2821 95.6736 61.7356 95.6736 62.3258L95.6736 65.196H94.8163L94.8163 62.3817C94.7976 61.6362 94.4218 61.2634 93.6887 61.2634C93.347 61.2634 93.0612 61.4032 92.8313 61.6828C92.6015 61.9561 92.4865 62.2854 92.4865 62.6706L92.4865 65.196H91.6292L91.6292 60.6297ZM98.8711 64.5624C99.2935 64.5624 99.6383 64.4101 99.9055 64.1057C100.185 63.8013 100.325 63.4037 100.325 62.9129C100.325 62.4345 100.185 62.04 99.9055 61.7294C99.6321 61.4187 99.2873 61.2634 98.8711 61.2634C98.461 61.2634 98.1162 61.4187 97.8367 61.7294C97.5571 62.04 97.4173 62.4345 97.4173 62.9129C97.4173 63.3975 97.5571 63.792 97.8367 64.0964C98.1162 64.407 98.461 64.5624 98.8711 64.5624ZM98.8431 67.3581C98.5884 67.3581 98.3492 67.3239 98.1255 67.2555C97.9019 67.1934 97.6969 67.1033 97.5105 66.9853C97.3303 66.8673 97.175 66.7275 97.0445 66.5659C96.9141 66.4044 96.8147 66.2242 96.7463 66.0254L97.5571 65.69C97.6503 65.9571 97.8118 66.1714 98.0417 66.333C98.2715 66.4945 98.5387 66.5753 98.8431 66.5753C99.3091 66.5753 99.6725 66.4355 99.9334 66.1559C100.194 65.8763 100.325 65.4911 100.325 65.0003L100.325 64.5624H100.288C100.126 64.8046 99.9055 64.9972 99.6259 65.1401C99.3525 65.2768 99.0543 65.3451 98.7313 65.3451C98.1349 65.3451 97.6223 65.1122 97.1936 64.6462C96.7712 64.1678 96.5599 63.5901 96.5599 62.9129C96.5599 62.2357 96.7712 61.661 97.1936 61.1889C97.6223 60.7167 98.1349 60.4806 98.7313 60.4806C99.0543 60.4806 99.3525 60.5521 99.6259 60.695C99.9055 60.8316 100.126 61.0211 100.288 61.2634H100.325L100.325 60.6297H101.145L101.145 65.0003C101.145 65.7334 100.937 66.3081 100.521 66.7244C100.098 67.1468 99.5389 67.3581 98.8431 67.3581ZM103.234 65.196H102.377L102.377 60.6297H103.197L103.197 61.3753H103.234C103.321 61.133 103.498 60.9279 103.765 60.7602C104.038 60.5862 104.306 60.4993 104.567 60.4993C104.815 60.4993 105.026 60.5365 105.2 60.6111L104.939 61.4405C104.834 61.397 104.666 61.3753 104.436 61.3753C104.113 61.3753 103.83 61.5057 103.588 61.7667C103.352 62.0276 103.234 62.332 103.234 62.6799L103.234 65.196ZM106.391 63.7982C106.391 64.0219 106.484 64.2082 106.67 64.3573C106.863 64.5064 107.087 64.581 107.341 64.581C107.702 64.581 108.022 64.4474 108.301 64.1803C108.587 63.9131 108.73 63.5994 108.73 63.2391C108.463 63.0278 108.09 62.9222 107.612 62.9222C107.264 62.9222 106.972 63.0061 106.736 63.1738C106.506 63.3416 106.391 63.5497 106.391 63.7982ZM107.5 60.4806C108.133 60.4806 108.634 60.6515 109 60.9932C109.367 61.3287 109.55 61.7915 109.55 62.3817L109.55 65.196H108.73L108.73 64.5624H108.693C108.338 65.0842 107.866 65.3451 107.276 65.3451C106.773 65.3451 106.35 65.196 106.009 64.8978C105.673 64.5996 105.505 64.2269 105.505 63.7796C105.505 63.3074 105.683 62.9315 106.037 62.652C106.397 62.3724 106.875 62.2326 107.472 62.2326C107.981 62.2326 108.401 62.3258 108.73 62.5122L108.73 62.3165C108.73 62.0183 108.612 61.7667 108.376 61.5616C108.14 61.3504 107.863 61.2448 107.546 61.2448C107.068 61.2448 106.689 61.4467 106.409 61.8505L105.655 61.3753C106.071 60.7788 106.686 60.4806 107.5 60.4806ZM112.42 65.2706C112.047 65.2706 111.737 65.1557 111.488 64.9258C111.246 64.6959 111.122 64.376 111.115 63.9659L111.115 61.4125H110.314L110.314 60.6297H111.115L111.115 59.2319H111.973L111.973 60.6297H113.091L113.091 61.4125H111.973L111.973 63.6864C111.973 63.9908 112.032 64.1989 112.15 64.3107C112.268 64.4164 112.402 64.4692 112.551 64.4692C112.619 64.4692 112.684 64.463 112.746 64.4505C112.815 64.4319 112.877 64.4101 112.933 64.3853L113.203 65.1494C112.979 65.2302 112.718 65.2706 112.42 65.2706ZM118.1 65.196H117.28L117.28 64.5624H117.243C117.112 64.786 116.911 64.9724 116.637 65.1215C116.37 65.2706 116.09 65.3451 115.798 65.3451C115.239 65.3451 114.808 65.1867 114.503 64.8699C114.205 64.5468 114.056 64.0902 114.056 63.5L114.056 60.6297H114.913L114.913 63.4441C114.932 64.1896 115.308 64.5624 116.041 64.5624C116.382 64.5624 116.668 64.4257 116.898 64.1523C117.128 63.8727 117.243 63.5404 117.243 63.1552L117.243 60.6297H118.1L118.1 65.196ZM120.188 58.5236L120.188 65.196H119.33L119.33 58.5236H120.188ZM121.998 63.7982C121.998 64.0219 122.091 64.2082 122.277 64.3573C122.47 64.5064 122.693 64.581 122.948 64.581C123.308 64.581 123.628 64.4474 123.908 64.1803C124.194 63.9131 124.337 63.5994 124.337 63.2391C124.069 63.0278 123.697 62.9222 123.218 62.9222C122.87 62.9222 122.578 63.0061 122.342 63.1738C122.112 63.3416 121.998 63.5497 121.998 63.7982ZM123.106 60.4806C123.74 60.4806 124.24 60.6515 124.607 60.9932C124.973 61.3287 125.157 61.7915 125.157 62.3817L125.157 65.196H124.337L124.337 64.5624H124.299C123.945 65.0842 123.473 65.3451 122.883 65.3451C122.38 65.3451 121.957 65.196 121.615 64.8978C121.28 64.5996 121.112 64.2269 121.112 63.7796C121.112 63.3074 121.289 62.9315 121.643 62.652C122.004 62.3724 122.482 62.2326 123.079 62.2326C123.588 62.2326 124.007 62.3258 124.337 62.5122L124.337 62.3165C124.337 62.0183 124.219 61.7667 123.982 61.5616C123.746 61.3504 123.47 61.2448 123.153 61.2448C122.675 61.2448 122.296 61.4467 122.016 61.8505L121.261 61.3753C121.678 60.7788 122.293 60.4806 123.106 60.4806ZM128.027 65.2706C127.654 65.2706 127.344 65.1557 127.095 64.9258C126.853 64.6959 126.728 64.376 126.722 63.9659L126.722 61.4125H125.921L125.921 60.6297H126.722L126.722 59.2319H127.58L127.58 60.6297H128.698L128.698 61.4125H127.58L127.58 63.6864C127.58 63.9908 127.639 64.1989 127.757 64.3107C127.875 64.4164 128.008 64.4692 128.157 64.4692C128.226 64.4692 128.291 64.463 128.353 64.4505C128.421 64.4319 128.484 64.4101 128.539 64.3853L128.81 65.1494C128.586 65.2302 128.325 65.2706 128.027 65.2706ZM130.854 59.0548C130.854 59.2226 130.795 59.3655 130.677 59.4835C130.559 59.6015 130.416 59.6606 130.249 59.6606C130.081 59.6606 129.938 59.6015 129.82 59.4835C129.702 59.3655 129.643 59.2226 129.643 59.0548C129.643 58.8871 129.702 58.7442 129.82 58.6262C129.938 58.5081 130.081 58.4491 130.249 58.4491C130.416 58.4491 130.559 58.5081 130.677 58.6262C130.795 58.7442 130.854 58.8871 130.854 59.0548ZM130.677 60.6297L130.677 65.196H129.82L129.82 60.6297H130.677ZM131.673 62.9129C131.673 62.2109 131.893 61.63 132.335 61.1702C132.782 60.7105 133.344 60.4806 134.021 60.4806C134.698 60.4806 135.258 60.7105 135.699 61.1702C136.146 61.63 136.37 62.2109 136.37 62.9129C136.37 63.6211 136.146 64.202 135.699 64.6555C135.258 65.1153 134.698 65.3451 134.021 65.3451C133.344 65.3451 132.782 65.1153 132.335 64.6555C131.893 64.1958 131.673 63.6149 131.673 62.9129ZM132.53 62.9129C132.53 63.4037 132.673 63.8013 132.959 64.1057C133.245 64.4101 133.599 64.5624 134.021 64.5624C134.444 64.5624 134.798 64.4101 135.084 64.1057C135.369 63.8013 135.512 63.4037 135.512 62.9129C135.512 62.4283 135.369 62.0338 135.084 61.7294C134.792 61.4187 134.438 61.2634 134.021 61.2634C133.605 61.2634 133.251 61.4187 132.959 61.7294C132.673 62.0338 132.53 62.4283 132.53 62.9129ZM137.244 60.6297H138.064L138.064 61.2634H138.101C138.232 61.0398 138.43 60.8534 138.698 60.7043C138.971 60.5552 139.254 60.4806 139.546 60.4806C140.105 60.4806 140.533 60.6422 140.832 60.9652C141.136 61.2821 141.288 61.7356 141.288 62.3258L141.288 65.196H140.431L140.431 62.3817C140.412 61.6362 140.036 61.2634 139.303 61.2634C138.962 61.2634 138.676 61.4032 138.446 61.6828C138.216 61.9561 138.101 62.2854 138.101 62.6706L138.101 65.196H137.244L137.244 60.6297ZM145.93 63.9287C145.93 64.3263 145.756 64.6618 145.408 64.9351C145.06 65.2085 144.622 65.3451 144.094 65.3451C143.635 65.3451 143.231 65.2271 142.883 64.991C142.535 64.7487 142.286 64.4319 142.137 64.0405L142.901 63.7143C143.013 63.9877 143.175 64.202 143.386 64.3573C143.604 64.5064 143.84 64.581 144.094 64.581C144.368 64.581 144.594 64.522 144.775 64.4039C144.961 64.2859 145.054 64.1461 145.054 63.9846C145.054 63.6926 144.831 63.4782 144.383 63.3416L143.6 63.1459C142.712 62.9222 142.268 62.4935 142.268 61.8598C142.268 61.4436 142.436 61.1112 142.771 60.8627C143.113 60.608 143.548 60.4806 144.076 60.4806C144.48 60.4806 144.843 60.5769 145.166 60.7695C145.495 60.9621 145.725 61.2199 145.856 61.543L145.091 61.8598C145.004 61.6673 144.862 61.5181 144.663 61.4125C144.47 61.3007 144.253 61.2448 144.01 61.2448C143.787 61.2448 143.585 61.3007 143.405 61.4125C143.231 61.5244 143.144 61.661 143.144 61.8226C143.144 62.0835 143.389 62.2699 143.88 62.3817L144.57 62.5588C145.477 62.7824 145.93 63.2391 145.93 63.9287ZM147.152 66.2398L146.751 65.9788L147.254 65.196C147.124 65.1712 147.012 65.106 146.919 65.0003C146.832 64.8947 146.788 64.7674 146.788 64.6183C146.788 64.4381 146.85 64.289 146.975 64.171C147.099 64.0467 147.248 63.9846 147.422 63.9846C147.602 63.9846 147.751 64.0467 147.869 64.171C147.994 64.289 148.056 64.4381 148.056 64.6183C148.056 64.786 147.994 64.9693 147.869 65.1681L147.152 66.2398ZM155.531 60.6297L152.67 67.2089H151.785L152.847 64.9072L150.965 60.6297H151.896L153.257 63.91H153.276L154.599 60.6297H155.531ZM155.834 62.9129C155.834 62.2109 156.054 61.63 156.496 61.1702C156.943 60.7105 157.505 60.4806 158.182 60.4806C158.859 60.4806 159.419 60.7105 159.86 61.1702C160.307 61.63 160.531 62.2109 160.531 62.9129C160.531 63.6211 160.307 64.202 159.86 64.6555C159.419 65.1153 158.859 65.3451 158.182 65.3451C157.505 65.3451 156.943 65.1153 156.496 64.6555C156.054 64.1958 155.834 63.6149 155.834 62.9129ZM156.691 62.9129C156.691 63.4037 156.834 63.8013 157.12 64.1057C157.406 64.4101 157.76 64.5624 158.182 64.5624C158.605 64.5624 158.959 64.4101 159.245 64.1057C159.53 63.8013 159.673 63.4037 159.673 62.9129C159.673 62.4283 159.53 62.0338 159.245 61.7294C158.953 61.4187 158.598 61.2634 158.182 61.2634C157.766 61.2634 157.412 61.4187 157.12 61.7294C156.834 62.0338 156.691 62.4283 156.691 62.9129ZM165.457 65.196H164.637L164.637 64.5624H164.6C164.47 64.786 164.268 64.9724 163.994 65.1215C163.727 65.2706 163.448 65.3451 163.156 65.3451C162.597 65.3451 162.165 65.1867 161.86 64.8699C161.562 64.5468 161.413 64.0902 161.413 63.5L161.413 60.6297H162.27L162.27 63.4441C162.289 64.1896 162.665 64.5624 163.398 64.5624C163.74 64.5624 164.025 64.4257 164.255 64.1523C164.485 63.8727 164.6 63.5404 164.6 63.1552L164.6 60.6297H165.457L165.457 65.196ZM167.545 65.196H166.688L166.688 60.6297H167.508L167.508 61.3753H167.545C167.632 61.133 167.809 60.9279 168.076 60.7602C168.349 60.5862 168.617 60.4993 168.877 60.4993C169.126 60.4993 169.337 60.5365 169.511 60.6111L169.25 61.4405C169.145 61.397 168.977 61.3753 168.747 61.3753C168.424 61.3753 168.141 61.5057 167.899 61.7667C167.663 62.0276 167.545 62.332 167.545 62.6799L167.545 65.196ZM174.73 64.5624C175.14 64.5624 175.485 64.407 175.764 64.0964C176.044 63.792 176.184 63.3975 176.184 62.9129C176.184 62.4345 176.044 62.04 175.764 61.7294C175.485 61.4187 175.14 61.2634 174.73 61.2634C174.314 61.2634 173.966 61.4187 173.686 61.7294C173.413 62.04 173.276 62.4345 173.276 62.9129C173.276 63.3975 173.413 63.7951 173.686 64.1057C173.966 64.4101 174.314 64.5624 174.73 64.5624ZM174.87 65.3451C174.534 65.3451 174.227 65.2737 173.947 65.1308C173.674 64.9879 173.462 64.7984 173.313 64.5624H173.276L173.313 65.196L173.313 67.2089H172.456L172.456 60.6297H173.276L173.276 61.2634H173.313C173.462 61.0273 173.674 60.8379 173.947 60.695C174.227 60.5521 174.534 60.4806 174.87 60.4806C175.472 60.4806 175.982 60.7167 176.398 61.1889C176.827 61.6673 177.041 62.2419 177.041 62.9129C177.041 63.5901 176.827 64.1647 176.398 64.6369C175.982 65.1091 175.472 65.3451 174.87 65.3451ZM178.637 63.7982C178.637 64.0219 178.73 64.2082 178.917 64.3573C179.109 64.5064 179.333 64.581 179.588 64.581C179.948 64.581 180.268 64.4474 180.547 64.1803C180.833 63.9131 180.976 63.5994 180.976 63.2391C180.709 63.0278 180.336 62.9222 179.858 62.9222C179.51 62.9222 179.218 63.0061 178.982 63.1738C178.752 63.3416 178.637 63.5497 178.637 63.7982ZM179.746 60.4806C180.38 60.4806 180.88 60.6515 181.246 60.9932C181.613 61.3287 181.796 61.7915 181.796 62.3817L181.796 65.196H180.976L180.976 64.5624H180.939C180.585 65.0842 180.113 65.3451 179.522 65.3451C179.019 65.3451 178.597 65.196 178.255 64.8978C177.919 64.5996 177.752 64.2269 177.752 63.7796C177.752 63.3074 177.929 62.9315 178.283 62.652C178.643 62.3724 179.122 62.2326 179.718 62.2326C180.227 62.2326 180.647 62.3258 180.976 62.5122L180.976 62.3165C180.976 62.0183 180.858 61.7667 180.622 61.5616C180.386 61.3504 180.109 61.2448 179.793 61.2448C179.314 61.2448 178.935 61.4467 178.656 61.8505L177.901 61.3753C178.317 60.7788 178.932 60.4806 179.746 60.4806ZM186.94 60.6297L184.079 67.2089H183.194L184.256 64.9072L182.374 60.6297H183.306L184.666 63.91H184.685L186.008 60.6297H186.94ZM188.544 65.196H187.686L187.686 60.6297H188.506L188.506 61.2634H188.544C188.674 61.0398 188.873 60.8534 189.14 60.7043C189.413 60.5552 189.684 60.4806 189.951 60.4806C190.286 60.4806 190.581 60.5583 190.836 60.7136C191.091 60.8689 191.277 61.0833 191.395 61.3566C191.774 60.7726 192.299 60.4806 192.97 60.4806C193.498 60.4806 193.905 60.6422 194.191 60.9652C194.477 61.2883 194.62 61.748 194.62 62.3444L194.62 65.196H193.762L193.762 62.4749C193.762 62.0462 193.685 61.7387 193.529 61.5523C193.374 61.3597 193.113 61.2634 192.746 61.2634C192.417 61.2634 192.141 61.4032 191.917 61.6828C191.693 61.9624 191.582 62.2916 191.582 62.6706L191.582 65.196H190.724L190.724 62.4749C190.724 62.0462 190.647 61.7387 190.491 61.5523C190.336 61.3597 190.075 61.2634 189.708 61.2634C189.379 61.2634 189.103 61.4032 188.879 61.6828C188.655 61.9624 188.544 62.2916 188.544 62.6706L188.544 65.196ZM197.858 65.3451C197.187 65.3451 196.635 65.1153 196.2 64.6555C195.765 64.1958 195.547 63.6149 195.547 62.9129C195.547 62.2171 195.759 61.6393 196.181 61.1796C196.604 60.7136 197.144 60.4806 197.803 60.4806C198.48 60.4806 199.017 60.7012 199.415 61.1423C199.819 61.5772 200.02 62.1891 200.02 62.9781L200.011 63.0713H196.423C196.436 63.5186 196.585 63.879 196.871 64.1523C197.156 64.4257 197.498 64.5624 197.896 64.5624C198.442 64.5624 198.871 64.289 199.182 63.7423L199.946 64.115C199.741 64.5002 199.455 64.8015 199.089 65.019C198.728 65.2364 198.318 65.3451 197.858 65.3451ZM196.489 62.3631H199.107C199.082 62.0462 198.952 61.7853 198.716 61.5803C198.486 61.369 198.175 61.2634 197.784 61.2634C197.461 61.2634 197.181 61.3628 196.945 61.5616C196.715 61.7604 196.563 62.0276 196.489 62.3631ZM200.991 60.6297H201.811L201.811 61.2634H201.848C201.979 61.0398 202.177 60.8534 202.445 60.7043C202.718 60.5552 203.001 60.4806 203.293 60.4806C203.852 60.4806 204.28 60.6422 204.579 60.9652C204.883 61.2821 205.035 61.7356 205.035 62.3258L205.035 65.196H204.178L204.178 62.3817C204.159 61.6362 203.783 61.2634 203.05 61.2634C202.709 61.2634 202.423 61.4032 202.193 61.6828C201.963 61.9561 201.848 62.2854 201.848 62.6706L201.848 65.196H200.991L200.991 60.6297ZM207.799 65.2706C207.427 65.2706 207.116 65.1557 206.867 64.9258C206.625 64.6959 206.501 64.376 206.495 63.9659L206.495 61.4125H205.693L205.693 60.6297H206.495L206.495 59.2319H207.352L207.352 60.6297H208.47L208.47 61.4125H207.352L207.352 63.6864C207.352 63.9908 207.411 64.1989 207.529 64.3107C207.647 64.4164 207.781 64.4692 207.93 64.4692C207.998 64.4692 208.063 64.463 208.126 64.4505C208.194 64.4319 208.256 64.4101 208.312 64.3853L208.582 65.1494C208.358 65.2302 208.098 65.2706 207.799 65.2706ZM218.174 60.6297L216.701 65.196H215.825L214.688 61.6921L213.561 65.196H212.694L211.222 60.6297H212.116L213.132 64.0778H213.141L214.269 60.6297H215.154L216.282 64.0778H216.291L217.298 60.6297H218.174ZM219.452 63.7982C219.452 64.0219 219.545 64.2082 219.731 64.3573C219.924 64.5064 220.147 64.581 220.402 64.581C220.763 64.581 221.082 64.4474 221.362 64.1803C221.648 63.9131 221.791 63.5994 221.791 63.2391C221.524 63.0278 221.151 62.9222 220.672 62.9222C220.325 62.9222 220.033 63.0061 219.796 63.1738C219.567 63.3416 219.452 63.5497 219.452 63.7982ZM220.561 60.4806C221.194 60.4806 221.694 60.6515 222.061 60.9932C222.428 61.3287 222.611 61.7915 222.611 62.3817L222.611 65.196H221.791L221.791 64.5624H221.753C221.399 65.0842 220.927 65.3451 220.337 65.3451C219.834 65.3451 219.411 65.196 219.07 64.8978C218.734 64.5996 218.566 64.2269 218.566 63.7796C218.566 63.3074 218.743 62.9315 219.098 62.652C219.458 62.3724 219.936 62.2326 220.533 62.2326C221.042 62.2326 221.461 62.3258 221.791 62.5122L221.791 62.3165C221.791 62.0183 221.673 61.7667 221.437 61.5616C221.201 61.3504 220.924 61.2448 220.607 61.2448C220.129 61.2448 219.75 61.4467 219.47 61.8505L218.715 61.3753C219.132 60.7788 219.747 60.4806 220.561 60.4806ZM227.213 63.9287C227.213 64.3263 227.039 64.6618 226.691 64.9351C226.344 65.2085 225.906 65.3451 225.377 65.3451C224.918 65.3451 224.514 65.2271 224.166 64.991C223.818 64.7487 223.57 64.4319 223.42 64.0405L224.185 63.7143C224.296 63.9877 224.458 64.202 224.669 64.3573C224.887 64.5064 225.123 64.581 225.377 64.581C225.651 64.581 225.878 64.522 226.058 64.4039C226.244 64.2859 226.337 64.1461 226.337 63.9846C226.337 63.6926 226.114 63.4782 225.666 63.3416L224.884 63.1459C223.995 62.9222 223.551 62.4935 223.551 61.8598C223.551 61.4436 223.719 61.1112 224.054 60.8627C224.396 60.608 224.831 60.4806 225.359 60.4806C225.763 60.4806 226.126 60.5769 226.449 60.7695C226.778 60.9621 227.008 61.2199 227.139 61.543L226.375 61.8598C226.288 61.6673 226.145 61.5181 225.946 61.4125C225.753 61.3007 225.536 61.2448 225.294 61.2448C225.07 61.2448 224.868 61.3007 224.688 61.4125C224.514 61.5244 224.427 61.661 224.427 61.8226C224.427 62.0835 224.672 62.2699 225.163 62.3817L225.853 62.5588C226.76 62.7824 227.213 63.2391 227.213 63.9287ZM233.875 63.9287C233.875 64.3263 233.701 64.6618 233.353 64.9351C233.005 65.2085 232.567 65.3451 232.039 65.3451C231.579 65.3451 231.175 65.2271 230.827 64.991C230.479 64.7487 230.231 64.4319 230.082 64.0405L230.846 63.7143C230.958 63.9877 231.119 64.202 231.33 64.3573C231.548 64.5064 231.784 64.581 232.039 64.581C232.312 64.581 232.539 64.522 232.719 64.4039C232.905 64.2859 232.999 64.1461 232.999 63.9846C232.999 63.6926 232.775 63.4782 232.328 63.3416L231.545 63.1459C230.656 62.9222 230.212 62.4935 230.212 61.8598C230.212 61.4436 230.38 61.1112 230.715 60.8627C231.057 60.608 231.492 60.4806 232.02 60.4806C232.424 60.4806 232.787 60.5769 233.11 60.7695C233.44 60.9621 233.67 61.2199 233.8 61.543L233.036 61.8598C232.949 61.6673 232.806 61.5181 232.607 61.4125C232.415 61.3007 232.197 61.2448 231.955 61.2448C231.731 61.2448 231.529 61.3007 231.349 61.4125C231.175 61.5244 231.088 61.661 231.088 61.8226C231.088 62.0835 231.334 62.2699 231.824 62.3817L232.514 62.5588C233.421 62.7824 233.875 63.2391 233.875 63.9287ZM238.814 65.196H237.994L237.994 64.5624H237.957C237.827 64.786 237.625 64.9724 237.351 65.1215C237.084 65.2706 236.805 65.3451 236.513 65.3451C235.953 65.3451 235.522 65.1867 235.217 64.8699C234.919 64.5468 234.77 64.0902 234.77 63.5L234.77 60.6297H235.627L235.627 63.4441C235.646 64.1896 236.022 64.5624 236.755 64.5624C237.097 64.5624 237.382 64.4257 237.612 64.1523C237.842 63.8727 237.957 63.5404 237.957 63.1552L237.957 60.6297H238.814L238.814 65.196ZM242.086 65.3451C241.409 65.3451 240.847 65.1153 240.4 64.6555C239.959 64.1834 239.738 63.6025 239.738 62.9129C239.738 62.2109 239.959 61.63 240.4 61.1702C240.847 60.7105 241.409 60.4806 242.086 60.4806C242.552 60.4806 242.959 60.5987 243.307 60.8348C243.655 61.0646 243.916 61.3846 244.09 61.7946L243.307 62.1208C243.065 61.5492 242.639 61.2634 242.03 61.2634C241.639 61.2634 241.3 61.4219 241.015 61.7387C240.735 62.0555 240.595 62.4469 240.595 62.9129C240.595 63.3788 240.735 63.7702 241.015 64.0871C241.3 64.4039 241.639 64.5624 242.03 64.5624C242.658 64.5624 243.099 64.2766 243.354 63.705L244.118 64.0312C243.95 64.4412 243.686 64.7643 243.326 65.0003C242.972 65.2302 242.559 65.3451 242.086 65.3451ZM247.096 65.3451C246.419 65.3451 245.857 65.1153 245.409 64.6555C244.968 64.1834 244.748 63.6025 244.748 62.9129C244.748 62.2109 244.968 61.63 245.409 61.1702C245.857 60.7105 246.419 60.4806 247.096 60.4806C247.562 60.4806 247.969 60.5987 248.317 60.8348C248.665 61.0646 248.926 61.3846 249.1 61.7946L248.317 62.1208C248.075 61.5492 247.649 61.2634 247.04 61.2634C246.649 61.2634 246.31 61.4219 246.024 61.7387C245.745 62.0555 245.605 62.4469 245.605 62.9129C245.605 63.3788 245.745 63.7702 246.024 64.0871C246.31 64.4039 246.649 64.5624 247.04 64.5624C247.668 64.5624 248.109 64.2766 248.363 63.705L249.128 64.0312C248.96 64.4412 248.696 64.7643 248.335 65.0003C247.981 65.2302 247.568 65.3451 247.096 65.3451ZM252.068 65.3451C251.397 65.3451 250.845 65.1153 250.41 64.6555C249.975 64.1958 249.757 63.6149 249.757 62.9129C249.757 62.2171 249.969 61.6393 250.391 61.1796C250.813 60.7136 251.354 60.4806 252.013 60.4806C252.69 60.4806 253.227 60.7012 253.625 61.1423C254.029 61.5772 254.23 62.1891 254.23 62.9781L254.221 63.0713H250.633C250.646 63.5186 250.795 63.879 251.081 64.1523C251.366 64.4257 251.708 64.5624 252.106 64.5624C252.652 64.5624 253.081 64.289 253.392 63.7423L254.156 64.115C253.951 64.5002 253.665 64.8015 253.299 65.019C252.938 65.2364 252.528 65.3451 252.068 65.3451ZM250.699 62.3631H253.317C253.292 62.0462 253.162 61.7853 252.926 61.5803C252.696 61.369 252.385 61.2634 251.994 61.2634C251.671 61.2634 251.391 61.3628 251.155 61.5616C250.925 61.7604 250.773 62.0276 250.699 62.3631ZM258.741 63.9287C258.741 64.3263 258.567 64.6618 258.219 64.9351C257.871 65.2085 257.433 65.3451 256.905 65.3451C256.445 65.3451 256.042 65.2271 255.694 64.991C255.346 64.7487 255.097 64.4319 254.948 64.0405L255.712 63.7143C255.824 63.9877 255.986 64.202 256.197 64.3573C256.414 64.5064 256.65 64.581 256.905 64.581C257.179 64.581 257.405 64.522 257.585 64.4039C257.772 64.2859 257.865 64.1461 257.865 63.9846C257.865 63.6926 257.641 63.4782 257.194 63.3416L256.411 63.1459C255.523 62.9222 255.079 62.4935 255.079 61.8598C255.079 61.4436 255.246 61.1112 255.582 60.8627C255.924 60.608 256.358 60.4806 256.887 60.4806C257.29 60.4806 257.654 60.5769 257.977 60.7695C258.306 60.9621 258.536 61.2199 258.666 61.543L257.902 61.8598C257.815 61.6673 257.672 61.5181 257.474 61.4125C257.281 61.3007 257.064 61.2448 256.821 61.2448C256.598 61.2448 256.396 61.3007 256.216 61.4125C256.042 61.5244 255.955 61.661 255.955 61.8226C255.955 62.0835 256.2 62.2699 256.691 62.3817L257.38 62.5588C258.287 62.7824 258.741 63.2391 258.741 63.9287ZM263.168 63.9287C263.168 64.3263 262.994 64.6618 262.646 64.9351C262.298 65.2085 261.86 65.3451 261.332 65.3451C260.873 65.3451 260.469 65.2271 260.121 64.991C259.773 64.7487 259.525 64.4319 259.375 64.0405L260.14 63.7143C260.251 63.9877 260.413 64.202 260.624 64.3573C260.842 64.5064 261.078 64.581 261.332 64.581C261.606 64.581 261.833 64.522 262.013 64.4039C262.199 64.2859 262.292 64.1461 262.292 63.9846C262.292 63.6926 262.069 63.4782 261.621 63.3416L260.839 63.1459C259.95 62.9222 259.506 62.4935 259.506 61.8598C259.506 61.4436 259.674 61.1112 260.009 60.8627C260.351 60.608 260.786 60.4806 261.314 60.4806C261.718 60.4806 262.081 60.5769 262.404 60.7695C262.733 60.9621 262.963 61.2199 263.094 61.543L262.33 61.8598C262.243 61.6673 262.1 61.5181 261.901 61.4125C261.708 61.3007 261.491 61.2448 261.249 61.2448C261.025 61.2448 260.823 61.3007 260.643 61.4125C260.469 61.5244 260.382 61.661 260.382 61.8226C260.382 62.0835 260.627 62.2699 261.118 62.3817L261.808 62.5588C262.715 62.7824 263.168 63.2391 263.168 63.9287ZM266.207 58.4491C266.518 58.4491 266.772 58.5019 266.971 58.6075L266.738 59.3624C266.589 59.2878 266.421 59.2505 266.235 59.2505C266.024 59.2505 265.85 59.3251 265.713 59.4742C265.583 59.6171 265.517 59.8097 265.517 60.052L265.517 60.6297H266.71L266.71 61.4125H265.517L265.517 65.196H264.66L264.66 61.4125H263.803L263.803 60.6297H264.66L264.66 59.9681C264.66 59.5146 264.803 59.148 265.089 58.8684C265.381 58.5889 265.753 58.4491 266.207 58.4491ZM271.634 65.196H270.814L270.814 64.5624H270.777C270.647 64.786 270.445 64.9724 270.171 65.1215C269.904 65.2706 269.625 65.3451 269.333 65.3451C268.773 65.3451 268.342 65.1867 268.037 64.8699C267.739 64.5468 267.59 64.0902 267.59 63.5L267.59 60.6297H268.447L268.447 63.4441C268.466 64.1896 268.842 64.5624 269.575 64.5624C269.917 64.5624 270.202 64.4257 270.432 64.1523C270.662 63.8727 270.777 63.5404 270.777 63.1552L270.777 60.6297H271.634L271.634 65.196ZM273.722 58.5236L273.722 65.196H272.864L272.864 58.5236H273.722ZM275.847 63.1272H275.176L275.083 60.6297L275.083 58.5236H275.941L275.941 60.6297L275.847 63.1272ZM276.146 64.6183C276.146 64.7922 276.083 64.9413 275.959 65.0656C275.841 65.1898 275.692 65.252 275.512 65.252C275.338 65.252 275.189 65.1898 275.065 65.0656C274.94 64.9413 274.878 64.7922 274.878 64.6183C274.878 64.4381 274.94 64.289 275.065 64.171C275.189 64.0467 275.338 63.9846 275.512 63.9846C275.692 63.9846 275.841 64.0467 275.959 64.171C276.083 64.289 276.146 64.4381 276.146 64.6183Z" fill="#464646"/>
<g filter="url(#filter0_i_1_1699)">
<path d="M320.157 13.8081L296.161 18.4666C288.962 19.8641 284.861 24.3952 286.492 32.794L288.15 41.3367C288.323 42.2246 289.342 42.5995 290.064 42.0858C292.206 40.5494 294.838 39.6151 297.792 39.5646C304.322 39.4673 310.089 44.4234 311.165 50.863C311.337 51.8755 311.384 52.8873 311.306 53.8984C311.259 54.6796 311.994 55.259 312.762 55.1099L327.615 52.2264C334.814 50.8288 338.915 46.2977 337.284 37.8989L334.485 23.4771C332.854 15.0784 327.356 12.4106 320.157 13.8081ZM313.05 41.3336C309.739 41.9764 306.53 39.8106 305.887 36.4991C305.244 33.1876 307.41 29.9782 310.721 29.3354C314.033 28.6925 317.242 30.8583 317.885 34.1698C318.528 37.4814 316.362 40.6907 313.05 41.3336ZM330.215 36.7564C330.406 37.7402 329.748 38.7145 328.765 38.9055C327.781 39.0965 326.806 38.439 326.615 37.4551L324.752 27.8566C324.561 26.8727 325.219 25.8985 326.202 25.7075C327.186 25.5165 328.161 26.174 328.352 27.1578L330.215 36.7564Z" fill="#F48C06"/>
<path d="M296.02 43.3948C290.717 44.4243 287.255 49.5535 288.285 54.8567C288.634 56.6565 289.469 58.2624 290.636 59.5298C292.832 61.992 296.243 63.2721 299.747 62.5919C303.25 61.9118 305.934 59.4484 307.05 56.3434C307.658 54.7313 307.831 52.9297 307.482 51.13C306.452 45.8268 301.323 42.3653 296.02 43.3948ZM302.457 51.2838L298.263 57.0033C297.988 57.3805 297.565 57.637 297.133 57.7208C296.677 57.8093 296.188 57.7299 295.758 57.4398L292.922 55.5253C292.091 54.9645 291.867 53.8127 292.428 52.9817C292.989 52.1507 294.14 51.9271 294.971 52.4879L296.347 53.4161L299.497 49.1193C300.086 48.3077 301.247 48.1321 302.059 48.7215C302.871 49.311 303.046 50.4721 302.457 51.2838Z" fill="#2F327D"/>
</g>
<defs>
<filter id="filter0_i_1_1699" x="277.5" y="0.94873" width="68.7716" height="71.5324" filterUnits="userSpaceOnUse" color-interpolation-filters="sRGB">
<feFlood flood-opacity="0" result="BackgroundImageFix"/>
<feBlend mode="normal" in="SourceGraphic" in2="BackgroundImageFix" result="shape"/>
<feColorMatrix in="SourceAlpha" type="matrix" values="0 0 0 0 0 0 0 0 0 0 0 0 0 0 0 0 0 0 127 0" result="hardAlpha"/>
<feOffset dy="2.76078"/>
<feGaussianBlur stdDeviation="1.38039"/>
<feComposite in2="hardAlpha" operator="arithmetic" k2="-1" k3="1"/>
<feColorMatrix type="matrix" values="0 0 0 0 0 0 0 0 0 0 0 0 0 0 0 0 0 0 0.1 0"/>
<feBlend mode="normal" in2="shape" result="effect1_innerShadow_1_1699"/>
</filter>
<linearGradient id="paint0_linear_1_1699" x1="83.6828" y1="41.6326" x2="111.535" y2="112.924" gradientUnits="userSpaceOnUse">
<stop offset="0.4" stop-color="#1B226B"/>
<stop offset="1" stop-color="#427FFF"/>
</linearGradient>
</defs>
</svg>
