<svg width="25" height="25" viewBox="0 0 25 25" fill="none" xmlns="http://www.w3.org/2000/svg">
<path d="M18.82 5.75635C18.46 6.11634 18.43 6.67634 18.75 7.07634C20.2 8.89635 20.96 11.3863 20.28 13.9963C19.49 17.0463 17.1 19.3263 14.07 19.9363C8.97002 20.9463 4.50002 17.0063 4.50002 12.0763C4.50002 7.99635 7.55002 4.63635 11.5 4.14635V6.16635C9.94587 6.42904 8.5575 7.29275 7.63499 8.57078C6.71249 9.84882 6.32994 11.4385 6.57002 12.9963C6.96002 15.6063 9.13002 17.7063 11.75 18.0263C12.8936 18.1698 14.0543 17.9808 15.0933 17.4821C16.1323 16.9833 17.0057 16.1959 17.609 15.2139C18.2123 14.2319 18.5201 13.0969 18.4954 11.9447C18.4708 10.7924 18.1148 9.67164 17.47 8.71635C17.13 8.21635 16.4 8.18634 15.97 8.60634L15.96 8.61634C15.62 8.95635 15.59 9.48635 15.85 9.88635C16.45 10.8063 16.69 11.9863 16.34 13.2063C16.1408 13.8879 15.7633 14.5039 15.2464 14.9909C14.7296 15.4778 14.0922 15.818 13.4 15.9763C12.8135 16.1118 12.2039 16.1131 11.6168 15.9802C11.0296 15.8472 10.4801 15.5835 10.009 15.2086C9.53802 14.8337 9.1577 14.3573 8.89641 13.815C8.63513 13.2727 8.49964 12.6783 8.50002 12.0763C8.50002 10.2163 9.78002 8.66635 11.5 8.21635V10.3563C10.9 10.7063 10.5 11.3363 10.5 12.0763C10.5 13.1763 11.4 14.0763 12.5 14.0763C13.6 14.0763 14.5 13.1763 14.5 12.0763C14.5 11.3363 14.1 10.6963 13.5 10.3563V2.78635C13.5 2.39635 13.18 2.07635 12.79 2.07635C7.43002 1.87635 2.81002 6.13634 2.52002 11.4763C2.16002 18.0263 7.93002 23.2963 14.53 21.8763C18.41 21.0463 21.41 18.0763 22.28 14.2063C22.99 11.0463 22.08 8.04635 20.31 5.83635C20.222 5.72636 20.1117 5.63622 19.9864 5.57183C19.8611 5.50743 19.7236 5.47024 19.5829 5.46269C19.4423 5.45514 19.3016 5.47739 19.1701 5.528C19.0386 5.57861 18.9193 5.65642 18.82 5.75635Z" fill="#18168A"/>
</svg>
