<svg width="30" height="31" viewBox="0 0 30 31" fill="none" xmlns="http://www.w3.org/2000/svg">
<rect y="0.549805" width="30" height="30" rx="15" fill="white"/>
<path d="M15.0024 8.17209C17.4072 8.17209 17.6895 8.18281 18.64 8.22569C19.5191 8.265 19.9943 8.4115 20.3123 8.53657C20.734 8.70094 21.0342 8.8939 21.3486 9.20835C21.6631 9.52281 21.8596 9.82297 22.0204 10.2446C22.1419 10.5626 22.292 11.0379 22.3313 11.9169C22.3742 12.8674 22.3849 13.1497 22.3849 15.5546C22.3849 17.9594 22.3742 18.2417 22.3313 19.1922C22.292 20.0712 22.1455 20.5465 22.0204 20.8645C21.856 21.2862 21.6631 21.5863 21.3486 21.9008C21.0342 22.2152 20.734 22.4118 20.3123 22.5726C19.9943 22.6941 19.5191 22.8441 18.64 22.8834C17.6895 22.9263 17.4072 22.937 15.0024 22.937C12.5975 22.937 12.3152 22.9263 11.3647 22.8834C10.4857 22.8441 10.0105 22.6976 9.69243 22.5726C9.27078 22.4082 8.97062 22.2152 8.65617 21.9008C8.34172 21.5863 8.14518 21.2862 7.98438 20.8645C7.86289 20.5465 7.71281 20.0712 7.6735 19.1922C7.63062 18.2417 7.6199 17.9594 7.6199 15.5546C7.6199 13.1497 7.63062 12.8674 7.6735 11.9169C7.71281 11.0379 7.85932 10.5626 7.98438 10.2446C8.14876 9.82297 8.34172 9.52281 8.65617 9.20835C8.97062 8.8939 9.27078 8.69737 9.69243 8.53657C10.0105 8.41508 10.4857 8.265 11.3647 8.22569C12.3152 8.17924 12.6011 8.17209 15.0024 8.17209ZM15.0024 6.5498C12.5582 6.5498 12.2509 6.56052 11.2897 6.6034C10.3321 6.64628 9.67814 6.79994 9.10641 7.02148C8.51324 7.25018 8.01297 7.56105 7.51271 8.06132C7.01244 8.56158 6.70513 9.06542 6.47287 9.65502C6.25132 10.2268 6.09767 10.8807 6.05479 11.8419C6.01191 12.7995 6.00119 13.1068 6.00119 15.551C6.00119 17.9951 6.01191 18.3025 6.05479 19.2637C6.09767 20.2213 6.25132 20.8752 6.47287 21.4505C6.70156 22.0437 7.01244 22.544 7.51271 23.0442C8.01297 23.5445 8.51681 23.8518 9.10641 24.0841C9.67814 24.3056 10.3321 24.4593 11.2933 24.5022C12.2545 24.545 12.5582 24.5558 15.006 24.5558C17.4537 24.5558 17.7574 24.545 18.7186 24.5022C19.6763 24.4593 20.3302 24.3056 20.9055 24.0841C21.4987 23.8554 21.999 23.5445 22.4992 23.0442C22.9995 22.544 23.3068 22.0401 23.5391 21.4505C23.7606 20.8788 23.9143 20.2249 23.9571 19.2637C24 18.3025 24.0107 17.9987 24.0107 15.551C24.0107 13.1033 24 12.7995 23.9571 11.8383C23.9143 10.8807 23.7606 10.2268 23.5391 9.65145C23.3104 9.05827 22.9995 8.55801 22.4992 8.05775C21.999 7.55748 21.4951 7.25018 20.9055 7.01791C20.3338 6.79636 19.6799 6.64271 18.7186 6.59983C17.7538 6.56052 17.4465 6.5498 15.0024 6.5498Z" fill="#303135"/>
<path d="M15.0024 8.17209C17.4072 8.17209 17.6895 8.18281 18.64 8.22569C19.5191 8.265 19.9943 8.4115 20.3123 8.53657C20.734 8.70094 21.0342 8.8939 21.3486 9.20835C21.6631 9.52281 21.8596 9.82297 22.0204 10.2446C22.1419 10.5626 22.292 11.0379 22.3313 11.9169C22.3742 12.8674 22.3849 13.1497 22.3849 15.5546C22.3849 17.9594 22.3742 18.2417 22.3313 19.1922C22.292 20.0712 22.1455 20.5465 22.0204 20.8645C21.856 21.2862 21.6631 21.5863 21.3486 21.9008C21.0342 22.2152 20.734 22.4118 20.3123 22.5726C19.9943 22.6941 19.5191 22.8441 18.64 22.8834C17.6895 22.9263 17.4072 22.937 15.0024 22.937C12.5975 22.937 12.3152 22.9263 11.3647 22.8834C10.4857 22.8441 10.0105 22.6976 9.69243 22.5726C9.27078 22.4082 8.97062 22.2152 8.65617 21.9008C8.34172 21.5863 8.14518 21.2862 7.98438 20.8645C7.86289 20.5465 7.71281 20.0712 7.6735 19.1922C7.63062 18.2417 7.6199 17.9594 7.6199 15.5546C7.6199 13.1497 7.63062 12.8674 7.6735 11.9169C7.71281 11.0379 7.85932 10.5626 7.98438 10.2446C8.14876 9.82297 8.34172 9.52281 8.65617 9.20835C8.97062 8.8939 9.27078 8.69737 9.69243 8.53657C10.0105 8.41508 10.4857 8.265 11.3647 8.22569C12.3152 8.17924 12.6011 8.17209 15.0024 8.17209Z" fill="#303135"/>
<path d="M15.0024 10.9307C12.451 10.9307 10.3785 12.9996 10.3785 15.5545C10.3785 18.1095 12.4475 20.1784 15.0024 20.1784C17.5573 20.1784 19.6263 18.1095 19.6263 15.5545C19.6263 12.9996 17.5573 10.9307 15.0024 10.9307ZM15.0024 18.5526C13.3444 18.5526 12.0008 17.209 12.0008 15.551C12.0008 13.8929 13.3444 12.5494 15.0024 12.5494C16.6604 12.5494 18.004 13.8929 18.004 15.551C18.004 17.209 16.6604 18.5526 15.0024 18.5526Z" fill="white"/>
<path d="M19.8085 11.8238C20.4045 11.8238 20.8877 11.3407 20.8877 10.7447C20.8877 10.1487 20.4045 9.66553 19.8085 9.66553C19.2125 9.66553 18.7294 10.1487 18.7294 10.7447C18.7294 11.3407 19.2125 11.8238 19.8085 11.8238Z" fill="white"/>
</svg>
