<svg width="30" height="31" viewBox="0 0 30 31" fill="none" xmlns="http://www.w3.org/2000/svg">
<rect y="0.549805" width="30" height="30" rx="15" fill="white"/>
<path d="M22.032 7.2998H7.96802C7.64498 7.2998 7.33517 7.42813 7.10675 7.65655C6.87833 7.88498 6.75 8.19479 6.75 8.51783V22.5818C6.75 22.9048 6.87833 23.2146 7.10675 23.4431C7.33517 23.6715 7.64498 23.7998 7.96802 23.7998H22.032C22.355 23.7998 22.6648 23.6715 22.8933 23.4431C23.1217 23.2146 23.25 22.9048 23.25 22.5818V8.51783C23.25 8.19479 23.1217 7.88498 22.8933 7.65655C22.6648 7.42813 22.355 7.2998 22.032 7.2998ZM11.6679 21.3557H9.18719V13.4758H11.6679V21.3557ZM10.4258 12.3839C10.1444 12.3823 9.86982 12.2974 9.63663 12.1399C9.40344 11.9824 9.22214 11.7593 9.1156 11.4988C9.00907 11.2384 8.98207 10.9522 9.03802 10.6764C9.09397 10.4006 9.23036 10.1476 9.42998 9.94928C9.6296 9.75094 9.8835 9.61618 10.1596 9.562C10.4358 9.50782 10.7218 9.53665 10.9815 9.64486C11.2413 9.75306 11.4632 9.93579 11.6192 10.17C11.7752 10.4042 11.8583 10.6793 11.8581 10.9607C11.8608 11.1491 11.8255 11.3361 11.7543 11.5106C11.6832 11.6851 11.5776 11.8434 11.444 11.9762C11.3103 12.109 11.1513 12.2136 10.9764 12.2836C10.8014 12.3536 10.6142 12.3877 10.4258 12.3839ZM20.8117 21.3626H18.3321V17.0577C18.3321 15.7881 17.7924 15.3963 17.0957 15.3963C16.3601 15.3963 15.6382 15.9508 15.6382 17.0898V21.3626H13.1575V13.4816H15.5431V14.5736H15.5752C15.8147 14.0889 16.6534 13.2604 17.9333 13.2604C19.3175 13.2604 20.8128 14.082 20.8128 16.4882L20.8117 21.3626Z" fill="#303135"/>
</svg>
