<svg width="44" height="34" viewBox="0 0 44 34" fill="none" xmlns="http://www.w3.org/2000/svg">
<mask id="path-1-inside-1_1_1972" fill="white">
<path d="M18.0226 0.98621C20.1608 0.98621 22.278 1.40735 24.2534 2.22559C26.2288 3.04383 28.0237 4.24313 29.5356 5.75504C31.0475 7.26694 32.2468 9.06183 33.065 11.0372C33.8833 13.0126 34.3044 15.1299 34.3044 17.268C34.3044 19.4062 33.8833 21.5234 33.065 23.4988C32.2468 25.4742 31.0475 27.2691 29.5356 28.781C28.0237 30.2929 26.2288 31.4922 24.2534 32.3104C22.278 33.1287 20.1608 33.5498 18.0226 33.5498L18.0226 27.4081C19.3542 27.4081 20.6728 27.1459 21.9031 26.6363C23.1333 26.1267 24.2512 25.3798 25.1928 24.4382C26.1344 23.4966 26.8813 22.3787 27.3909 21.1485C27.9005 19.9182 28.1628 18.5996 28.1628 17.268C28.1628 15.9364 27.9005 14.6178 27.3909 13.3875C26.8813 12.1573 26.1344 11.0394 25.1928 10.0978C24.2512 9.15625 23.1333 8.40933 21.9031 7.89974C20.6728 7.39015 19.3542 7.12787 18.0226 7.12787L18.0226 0.98621Z"/>
</mask>
<path d="M18.0226 0.98621C20.1608 0.98621 22.278 1.40735 24.2534 2.22559C26.2288 3.04383 28.0237 4.24313 29.5356 5.75504C31.0475 7.26694 32.2468 9.06183 33.065 11.0372C33.8833 13.0126 34.3044 15.1299 34.3044 17.268C34.3044 19.4062 33.8833 21.5234 33.065 23.4988C32.2468 25.4742 31.0475 27.2691 29.5356 28.781C28.0237 30.2929 26.2288 31.4922 24.2534 32.3104C22.278 33.1287 20.1608 33.5498 18.0226 33.5498L18.0226 27.4081C19.3542 27.4081 20.6728 27.1459 21.9031 26.6363C23.1333 26.1267 24.2512 25.3798 25.1928 24.4382C26.1344 23.4966 26.8813 22.3787 27.3909 21.1485C27.9005 19.9182 28.1628 18.5996 28.1628 17.268C28.1628 15.9364 27.9005 14.6178 27.3909 13.3875C26.8813 12.1573 26.1344 11.0394 25.1928 10.0978C24.2512 9.15625 23.1333 8.40933 21.9031 7.89974C20.6728 7.39015 19.3542 7.12787 18.0226 7.12787L18.0226 0.98621Z" stroke="white" stroke-width="10.8545" mask="url(#path-1-inside-1_1_1972)"/>
<rect x="18.0226" y="33.5498" width="6.04167" height="25.7027" transform="rotate(-90 18.0226 33.5498)" fill="white"/>
<rect x="18.0226" y="7.02783" width="6.04167" height="25.7027" transform="rotate(-90 18.0226 7.02783)" fill="white"/>
<rect x="29.6963" y="20.2378" width="6.04167" height="14.029" transform="rotate(-90 29.6963 20.2378)" fill="white"/>
<mask id="path-5-inside-2_1_1972" fill="white">
<path d="M16.2818 0.98621C14.1436 0.98621 12.0264 1.40735 10.051 2.22559C8.07562 3.04383 6.28073 4.24313 4.76883 5.75504C3.25692 7.26694 2.05761 9.06183 1.23938 11.0372C0.421141 13.0126 -9.34618e-08 15.1299 0 17.268C9.34618e-08 19.4062 0.421141 21.5234 1.23938 23.4988C2.05762 25.4742 3.25692 27.2691 4.76883 28.781C6.28073 30.2929 8.07563 31.4922 10.051 32.3104C12.0264 33.1287 14.1436 33.5498 16.2818 33.5498L16.2818 27.4081C14.9502 27.4081 13.6316 27.1459 12.4013 26.6363C11.1711 26.1267 10.0532 25.3798 9.11164 24.4382C8.17004 23.4966 7.42312 22.3787 6.91353 21.1485C6.40394 19.9182 6.14166 18.5996 6.14166 17.268C6.14166 15.9364 6.40394 14.6178 6.91353 13.3875C7.42312 12.1573 8.17004 11.0394 9.11164 10.0978C10.0532 9.15625 11.1711 8.40933 12.4013 7.89974C13.6316 7.39015 14.9502 7.12787 16.2818 7.12787L16.2818 0.98621Z"/>
</mask>
<path d="M16.2818 0.98621C14.1436 0.98621 12.0264 1.40735 10.051 2.22559C8.07562 3.04383 6.28073 4.24313 4.76883 5.75504C3.25692 7.26694 2.05761 9.06183 1.23938 11.0372C0.421141 13.0126 -9.34618e-08 15.1299 0 17.268C9.34618e-08 19.4062 0.421141 21.5234 1.23938 23.4988C2.05762 25.4742 3.25692 27.2691 4.76883 28.781C6.28073 30.2929 8.07563 31.4922 10.051 32.3104C12.0264 33.1287 14.1436 33.5498 16.2818 33.5498L16.2818 27.4081C14.9502 27.4081 13.6316 27.1459 12.4013 26.6363C11.1711 26.1267 10.0532 25.3798 9.11164 24.4382C8.17004 23.4966 7.42312 22.3787 6.91353 21.1485C6.40394 19.9182 6.14166 18.5996 6.14166 17.268C6.14166 15.9364 6.40394 14.6178 6.91353 13.3875C7.42312 12.1573 8.17004 11.0394 9.11164 10.0978C10.0532 9.15625 11.1711 8.40933 12.4013 7.89974C13.6316 7.39015 14.9502 7.12787 16.2818 7.12787L16.2818 0.98621Z" stroke="white" stroke-width="10.8545" mask="url(#path-5-inside-2_1_1972)"/>
<rect x="5.63206" y="20.3398" width="6.04167" height="5.73447" transform="rotate(-90 5.63206 20.3398)" fill="white"/>
</svg>
