<svg width="25" height="25" viewBox="0 0 25 25" fill="none" xmlns="http://www.w3.org/2000/svg">
<path d="M10.5 12.0764C9.4 12.0764 8.45833 11.6847 7.675 10.9014C6.89167 10.1181 6.5 9.17642 6.5 8.07642C6.5 6.97642 6.89167 6.03475 7.675 5.25142C8.45833 4.46808 9.4 4.07642 10.5 4.07642C11.6 4.07642 12.5417 4.46808 13.325 5.25142C14.1083 6.03475 14.5 6.97642 14.5 8.07642C14.5 9.17642 14.1083 10.1181 13.325 10.9014C12.5417 11.6847 11.6 12.0764 10.5 12.0764ZM2.5 20.0764V17.2764C2.5 16.7264 2.64167 16.2097 2.925 15.7264C3.20833 15.2431 3.6 14.8764 4.1 14.6264C4.95 14.1931 5.90833 13.8264 6.975 13.5264C8.04167 13.2264 9.21667 13.0764 10.5 13.0764H10.85C10.95 13.0764 11.05 13.0931 11.15 13.1264C11.0167 13.4264 10.9043 13.7391 10.813 14.0644C10.7217 14.3897 10.6507 14.7271 10.6 15.0764H10.5C9.31667 15.0764 8.25433 15.2264 7.313 15.5264C6.37167 15.8264 5.60067 16.1264 5 16.4264C4.85 16.5097 4.729 16.6264 4.637 16.7764C4.545 16.9264 4.49933 17.0931 4.5 17.2764V18.0764H10.8C10.9 18.4264 11.0333 18.7724 11.2 19.1144C11.3667 19.4564 11.55 19.7771 11.75 20.0764H2.5ZM16.5 21.0764L16.2 19.5764C16 19.4931 15.8127 19.4058 15.638 19.3144C15.4633 19.2231 15.284 19.1104 15.1 18.9764L13.65 19.4264L12.65 17.7264L13.8 16.7264C13.7667 16.4931 13.75 16.2764 13.75 16.0764C13.75 15.8764 13.7667 15.6597 13.8 15.4264L12.65 14.4264L13.65 12.7264L15.1 13.1764C15.2833 13.0431 15.4627 12.9307 15.638 12.8394C15.8133 12.7481 16.0007 12.6604 16.2 12.5764L16.5 11.0764H18.5L18.8 12.5764C19 12.6597 19.1877 12.7514 19.363 12.8514C19.5383 12.9514 19.7173 13.0764 19.9 13.2264L21.35 12.7264L22.35 14.4764L21.2 15.4764C21.2333 15.6764 21.25 15.8847 21.25 16.1014C21.25 16.3181 21.2333 16.5264 21.2 16.7264L22.35 17.7264L21.35 19.4264L19.9 18.9764C19.7167 19.1097 19.5377 19.2224 19.363 19.3144C19.1883 19.4064 19.0007 19.4937 18.8 19.5764L18.5 21.0764H16.5ZM17.5 18.0764C18.05 18.0764 18.521 17.8807 18.913 17.4894C19.305 17.0981 19.5007 16.6271 19.5 16.0764C19.4993 15.5257 19.3037 15.0551 18.913 14.6644C18.5223 14.2737 18.0513 14.0777 17.5 14.0764C16.9487 14.0751 16.478 14.2711 16.088 14.6644C15.698 15.0577 15.502 15.5284 15.5 16.0764C15.498 16.6244 15.694 17.0954 16.088 17.4894C16.482 17.8834 16.9527 18.0791 17.5 18.0764ZM10.5 10.0764C11.05 10.0764 11.521 9.88075 11.913 9.48942C12.305 9.09808 12.5007 8.62708 12.5 8.07642C12.4993 7.52575 12.3037 7.05508 11.913 6.66442C11.5223 6.27375 11.0513 6.07775 10.5 6.07642C9.94867 6.07508 9.478 6.27108 9.088 6.66442C8.698 7.05775 8.502 7.52842 8.5 8.07642C8.498 8.62442 8.694 9.09542 9.088 9.48942C9.482 9.88342 9.95267 10.0791 10.5 10.0764Z" fill="#D042C5"/>
</svg>
