<svg width="25" height="25" viewBox="0 0 25 25" fill="none" xmlns="http://www.w3.org/2000/svg">
<g clip-path="url(#clip0_1_1816)">
<path d="M7.5 14.0764H17.5M7.5 11.0764H17.5M7.5 17.0764H13.5M16.5 3.07642V5.27642C16.5 5.48859 16.4157 5.69207 16.2657 5.8421C16.1157 5.99213 15.9122 6.07642 15.7 6.07642H9.3C9.08783 6.07642 8.88434 5.99213 8.73431 5.8421C8.58429 5.69207 8.5 5.48859 8.5 5.27642V3.07642M10.5 3.07642C10.5 2.54598 10.7107 2.03728 11.0858 1.6622C11.4609 1.28713 11.9696 1.07642 12.5 1.07642C13.0304 1.07642 13.5391 1.28713 13.9142 1.6622C14.2893 2.03728 14.5 2.54598 14.5 3.07642M5.9 3.07642H19.1C19.7365 3.07642 20.347 3.32927 20.7971 3.77936C21.2471 4.22945 21.5 4.8399 21.5 5.47642V20.6764C21.5 21.3129 21.2471 21.9234 20.7971 22.3735C20.347 22.8236 19.7365 23.0764 19.1 23.0764H5.9C5.58483 23.0764 5.27274 23.0143 4.98156 22.8937C4.69038 22.7731 4.4258 22.5963 4.20294 22.3735C3.75286 21.9234 3.5 21.3129 3.5 20.6764V5.47642C3.5 5.16124 3.56208 4.84916 3.68269 4.55798C3.8033 4.26679 3.98008 4.00222 4.20294 3.77936C4.65303 3.32927 5.26348 3.07642 5.9 3.07642Z" stroke="#2469B3" stroke-width="1.5" stroke-miterlimit="10" stroke-linecap="round" stroke-linejoin="round"/>
</g>
<defs>
<clipPath id="clip0_1_1816">
<rect width="24" height="24" fill="white" transform="translate(0.5 0.076416)"/>
</clipPath>
</defs>
</svg>
