<svg width="25" height="25" viewBox="0 0 25 25" fill="none" xmlns="http://www.w3.org/2000/svg">
<path d="M3.75 5.07642C3.75 4.34707 4.03973 3.6476 4.55546 3.13187C5.07118 2.61615 5.77065 2.32642 6.5 2.32642H16.5C17.2293 2.32642 17.9288 2.61615 18.4445 3.13187C18.9603 3.6476 19.25 4.34707 19.25 5.07642V10.5764C19.25 10.7753 19.171 10.9661 19.0303 11.1067C18.8897 11.2474 18.6989 11.3264 18.5 11.3264C18.3011 11.3264 18.1103 11.2474 17.9697 11.1067C17.829 10.9661 17.75 10.7753 17.75 10.5764V5.07642C17.75 4.38642 17.19 3.82642 16.5 3.82642H6.5C5.81 3.82642 5.25 4.38642 5.25 5.07642V19.0764C5.25 19.7664 5.81 20.3264 6.5 20.3264H14C14.1989 20.3264 14.3897 20.4054 14.5303 20.5461C14.671 20.6867 14.75 20.8775 14.75 21.0764C14.75 21.2753 14.671 21.4661 14.5303 21.6067C14.3897 21.7474 14.1989 21.8264 14 21.8264H6.5C5.77065 21.8264 5.07118 21.5367 4.55546 21.021C4.03973 20.5052 3.75 19.8058 3.75 19.0764V5.07642Z" fill="#00761D"/>
<path d="M18.5 13.3264C18.6989 13.3264 18.8897 13.4054 19.0303 13.5461C19.171 13.6867 19.25 13.8775 19.25 14.0764V14.4944C20.277 14.5324 21.25 15.2894 21.25 16.4094C21.25 16.6083 21.171 16.7991 21.0303 16.9397C20.8897 17.0804 20.6989 17.1594 20.5 17.1594C20.3011 17.1594 20.1103 17.0804 19.9697 16.9397C19.829 16.7991 19.75 16.6083 19.75 16.4094C19.75 16.2674 19.588 15.9934 19.169 15.9934H17.663C17.5435 15.9902 17.4267 16.0299 17.334 16.1054C17.266 16.1654 17.25 16.2224 17.25 16.2594C17.2485 16.3097 17.2545 16.3599 17.268 16.4084C17.2813 16.4182 17.2953 16.4269 17.31 16.4344C17.35 16.4544 17.41 16.4784 17.503 16.5064L19.921 17.2074C20.197 17.2894 20.551 17.4254 20.829 17.7204C21.129 18.0404 21.25 18.4504 21.25 18.8934C21.25 19.9604 20.294 20.6594 19.337 20.6594H19.25V21.0764C19.25 21.2753 19.171 21.4661 19.0303 21.6067C18.8897 21.7474 18.6989 21.8264 18.5 21.8264C18.3011 21.8264 18.1103 21.7474 17.9697 21.6067C17.829 21.4661 17.75 21.2753 17.75 21.0764V20.6584C16.723 20.6204 15.75 19.8634 15.75 18.7434C15.75 18.5445 15.829 18.3537 15.9697 18.2131C16.1103 18.0724 16.3011 17.9934 16.5 17.9934C16.6989 17.9934 16.8897 18.0724 17.0303 18.2131C17.171 18.3537 17.25 18.5445 17.25 18.7434C17.25 18.8854 17.412 19.1594 17.831 19.1594H19.337C19.4565 19.1626 19.5733 19.1229 19.666 19.0474C19.734 18.9874 19.75 18.9304 19.75 18.8934C19.7515 18.8431 19.7455 18.7929 19.732 18.7444C19.7187 18.7346 19.7047 18.7259 19.69 18.7184C19.65 18.6984 19.59 18.6744 19.497 18.6464L17.079 17.9454C16.803 17.8634 16.449 17.7274 16.171 17.4324C15.871 17.1124 15.75 16.7024 15.75 16.2594C15.75 15.1924 16.706 14.4934 17.663 14.4934H17.75V14.0764C17.75 13.8775 17.829 13.6867 17.9697 13.5461C18.1103 13.4054 18.3011 13.3264 18.5 13.3264ZM6.75 11.0764C6.75 10.8775 6.82902 10.6867 6.96967 10.5461C7.11032 10.4054 7.30109 10.3264 7.5 10.3264H8C8.19891 10.3264 8.38968 10.4054 8.53033 10.5461C8.67098 10.6867 8.75 10.8775 8.75 11.0764C8.75 11.2753 8.67098 11.4661 8.53033 11.6067C8.38968 11.7474 8.19891 11.8264 8 11.8264H7.5C7.30109 11.8264 7.11032 11.7474 6.96967 11.6067C6.82902 11.4661 6.75 11.2753 6.75 11.0764ZM9.75 11.0764C9.75 10.8775 9.82902 10.6867 9.96967 10.5461C10.1103 10.4054 10.3011 10.3264 10.5 10.3264H15.5C15.6989 10.3264 15.8897 10.4054 16.0303 10.5461C16.171 10.6867 16.25 10.8775 16.25 11.0764C16.25 11.2753 16.171 11.4661 16.0303 11.6067C15.8897 11.7474 15.6989 11.8264 15.5 11.8264H10.5C10.3011 11.8264 10.1103 11.7474 9.96967 11.6067C9.82902 11.4661 9.75 11.2753 9.75 11.0764ZM6.75 14.0764C6.75 13.8775 6.82902 13.6867 6.96967 13.5461C7.11032 13.4054 7.30109 13.3264 7.5 13.3264H8C8.19891 13.3264 8.38968 13.4054 8.53033 13.5461C8.67098 13.6867 8.75 13.8775 8.75 14.0764C8.75 14.2753 8.67098 14.4661 8.53033 14.6067C8.38968 14.7474 8.19891 14.8264 8 14.8264H7.5C7.30109 14.8264 7.11032 14.7474 6.96967 14.6067C6.82902 14.4661 6.75 14.2753 6.75 14.0764ZM9.75 14.0764C9.75 13.8775 9.82902 13.6867 9.96967 13.5461C10.1103 13.4054 10.3011 13.3264 10.5 13.3264H14C14.1989 13.3264 14.3897 13.4054 14.5303 13.5461C14.671 13.6867 14.75 13.8775 14.75 14.0764C14.75 14.2753 14.671 14.4661 14.5303 14.6067C14.3897 14.7474 14.1989 14.8264 14 14.8264H10.5C10.3011 14.8264 10.1103 14.7474 9.96967 14.6067C9.82902 14.4661 9.75 14.2753 9.75 14.0764ZM6.75 17.0764C6.75 16.8775 6.82902 16.6867 6.96967 16.5461C7.11032 16.4054 7.30109 16.3264 7.5 16.3264H8C8.19891 16.3264 8.38968 16.4054 8.53033 16.5461C8.67098 16.6867 8.75 16.8775 8.75 17.0764C8.75 17.2753 8.67098 17.4661 8.53033 17.6067C8.38968 17.7474 8.19891 17.8264 8 17.8264H7.5C7.30109 17.8264 7.11032 17.7474 6.96967 17.6067C6.82902 17.4661 6.75 17.2753 6.75 17.0764ZM9.75 17.0764C9.75 16.8775 9.82902 16.6867 9.96967 16.5461C10.1103 16.4054 10.3011 16.3264 10.5 16.3264H12.5C12.6989 16.3264 12.8897 16.4054 13.0303 16.5461C13.171 16.6867 13.25 16.8775 13.25 17.0764C13.25 17.2753 13.171 17.4661 13.0303 17.6067C12.8897 17.7474 12.6989 17.8264 12.5 17.8264H10.5C10.3011 17.8264 10.1103 17.7474 9.96967 17.6067C9.82902 17.4661 9.75 17.2753 9.75 17.0764ZM6.5 6.57642C6.5 6.11042 6.5 5.87742 6.576 5.69342C6.67771 5.44888 6.87227 5.25467 7.117 5.15342C7.301 5.07642 7.534 5.07642 8 5.07642H15C15.466 5.07642 15.699 5.07642 15.883 5.15242C16.1275 5.25413 16.3217 5.44869 16.423 5.69342C16.5 5.87742 16.5 6.11042 16.5 6.57642C16.5 7.04242 16.5 7.27542 16.424 7.45942C16.3223 7.70396 16.1277 7.89816 15.883 7.99942C15.699 8.07642 15.466 8.07642 15 8.07642H8C7.534 8.07642 7.301 8.07642 7.117 8.00042C6.87246 7.89871 6.67826 7.70414 6.577 7.45942C6.5 7.27542 6.5 7.04242 6.5 6.57642Z" fill="#00761D"/>
</svg>
