<svg width="30" height="31" viewBox="0 0 30 31" fill="none" xmlns="http://www.w3.org/2000/svg">
<rect y="0.549805" width="30" height="30" rx="15" fill="white"/>
<path d="M12.255 23.4622C18.9075 23.4622 22.545 17.9497 22.545 13.1722C22.545 13.0147 22.545 12.8572 22.5375 12.7072C23.2425 12.1972 23.8575 11.5597 24.345 10.8322C23.7 11.1172 23.0025 11.3122 22.2675 11.4022C23.0175 10.9522 23.5875 10.2472 23.8575 9.39971C23.16 9.81221 22.3875 10.1122 21.5625 10.2772C20.9025 9.57221 19.965 9.13721 18.9225 9.13721C16.9275 9.13721 15.3075 10.7572 15.3075 12.7522C15.3075 13.0372 15.3375 13.3147 15.405 13.5772C12.3975 13.4272 9.73501 11.9872 7.95001 9.79721C7.64251 10.3297 7.46251 10.9522 7.46251 11.6122C7.46251 12.8647 8.10001 13.9747 9.07501 14.6197C8.48251 14.6047 7.92751 14.4397 7.44001 14.1697C7.44001 14.1847 7.44001 14.1997 7.44001 14.2147C7.44001 15.9697 8.68501 17.4247 10.3425 17.7622C10.0425 17.8447 9.72001 17.8897 9.39001 17.8897C9.15751 17.8897 8.93251 17.8672 8.70751 17.8222C9.16501 19.2622 10.5 20.3047 12.0825 20.3347C10.845 21.3022 9.28501 21.8797 7.59001 21.8797C7.29751 21.8797 7.01251 21.8647 6.72751 21.8272C8.31001 22.8622 10.215 23.4622 12.255 23.4622Z" fill="#303135"/>
</svg>
