<svg width="45" height="30" viewBox="0 0 45 30" fill="none" xmlns="http://www.w3.org/2000/svg">
<path d="M4.65239 12.5V0.0295507H9.04143C9.6336 0.0295507 10.1851 0.128246 10.696 0.325636C11.2185 0.511416 11.6714 0.778474 12.0545 1.12681C12.4377 1.47515 12.7396 1.89315 12.9602 2.38082C13.1808 2.85688 13.2911 3.38519 13.2911 3.96575C13.2911 4.55793 13.1808 5.09785 12.9602 5.58552C12.7396 6.06158 12.4377 6.47378 12.0545 6.82211C11.6714 7.17045 11.2185 7.44331 10.696 7.6407C10.1851 7.82648 9.6336 7.91937 9.04143 7.91937H7.00366V12.5H4.65239ZM9.07626 5.69002C9.69166 5.69002 10.1561 5.51585 10.4696 5.16751C10.7831 4.81918 10.9399 4.41859 10.9399 3.96575C10.9399 3.74514 10.8992 3.53033 10.8179 3.32133C10.7483 3.11233 10.6322 2.93236 10.4696 2.78141C10.3187 2.61885 10.1271 2.49113 9.89485 2.39824C9.66263 2.30535 9.38977 2.25891 9.07626 2.25891H7.00366V5.69002H9.07626ZM17.761 3.68708C18.4228 3.68708 19.0266 3.8032 19.5724 4.03542C20.1297 4.25603 20.6057 4.56954 21.0005 4.97593C21.4069 5.37071 21.7204 5.84677 21.941 6.40411C22.1733 6.96145 22.2894 7.57104 22.2894 8.23288C22.2894 8.89472 22.1733 9.50431 21.941 10.0616C21.7204 10.619 21.4069 11.1008 21.0005 11.5072C20.6057 11.902 20.1297 12.2155 19.5724 12.4477C19.0266 12.6684 18.4228 12.7787 17.761 12.7787C17.0992 12.7787 16.4896 12.6684 15.9322 12.4477C15.3865 12.2155 14.9104 11.902 14.5041 11.5072C14.1093 11.1008 13.7958 10.619 13.5635 10.0616C13.3429 9.50431 13.2326 8.89472 13.2326 8.23288C13.2326 7.57104 13.3429 6.96145 13.5635 6.40411C13.7958 5.84677 14.1093 5.37071 14.5041 4.97593C14.9104 4.56954 15.3865 4.25603 15.9322 4.03542C16.4896 3.8032 17.0992 3.68708 17.761 3.68708ZM17.761 10.6712C18.0513 10.6712 18.33 10.619 18.597 10.5145C18.8757 10.3984 19.1195 10.2358 19.3285 10.0268C19.5375 9.81781 19.7001 9.56236 19.8162 9.26047C19.9439 8.95858 20.0078 8.61605 20.0078 8.23288C20.0078 7.84971 19.9439 7.50718 19.8162 7.20528C19.7001 6.90339 19.5375 6.64795 19.3285 6.43894C19.1195 6.22994 18.8757 6.07319 18.597 5.96869C18.33 5.85258 18.0513 5.79452 17.761 5.79452C17.4591 5.79452 17.1746 5.85258 16.9076 5.96869C16.6405 6.07319 16.4025 6.22994 16.1935 6.43894C15.9845 6.64795 15.8161 6.90339 15.6884 7.20528C15.5723 7.50718 15.5142 7.84971 15.5142 8.23288C15.5142 8.61605 15.5723 8.95858 15.6884 9.26047C15.8161 9.56236 15.9845 9.81781 16.1935 10.0268C16.4025 10.2358 16.6405 10.3984 16.9076 10.5145C17.1746 10.619 17.4591 10.6712 17.761 10.6712ZM26.7009 12.7787C26.1435 12.7787 25.6442 12.709 25.203 12.5697C24.7734 12.4303 24.396 12.2504 24.0709 12.0297C23.7574 11.7975 23.4904 11.5363 23.2698 11.246C23.0491 10.9441 22.8808 10.6422 22.7647 10.3403L24.8024 9.46947C24.9998 9.9107 25.2611 10.2416 25.5862 10.4622C25.9229 10.6712 26.2945 10.7757 26.7009 10.7757C27.1189 10.7757 27.4498 10.7003 27.6936 10.5493C27.9375 10.3984 28.0594 10.2184 28.0594 10.0094C28.0594 9.77717 27.9549 9.59139 27.7459 9.45205C27.5485 9.30111 27.2002 9.16758 26.7009 9.05147L25.4991 8.79022C25.232 8.73216 24.9534 8.63927 24.6631 8.51155C24.3844 8.38382 24.129 8.22127 23.8968 8.02388C23.6645 7.82648 23.4729 7.58845 23.322 7.30979C23.1711 7.03112 23.0956 6.706 23.0956 6.33444C23.0956 5.91644 23.1827 5.54488 23.3568 5.21977C23.5426 4.89465 23.7923 4.62179 24.1058 4.40117C24.4193 4.16895 24.785 3.99478 25.203 3.87867C25.6326 3.75095 26.0913 3.68708 26.579 3.68708C27.3917 3.68708 28.1174 3.84964 28.7561 4.17476C29.3947 4.48826 29.8649 4.99335 30.1668 5.69002L28.1987 6.49119C28.0362 6.15447 27.7981 5.91063 27.4846 5.75969C27.1711 5.60874 26.8576 5.53327 26.5441 5.53327C26.219 5.53327 25.9345 5.60294 25.6907 5.74227C25.4469 5.86999 25.3249 6.03836 25.3249 6.24736C25.3249 6.44475 25.4236 6.6015 25.621 6.71761C25.83 6.83372 26.1087 6.93823 26.457 7.03112L27.7633 7.34462C28.6341 7.55362 29.2786 7.89035 29.6966 8.35479C30.1262 8.80763 30.341 9.34755 30.341 9.97456C30.341 10.3461 30.2539 10.7003 30.0797 11.037C29.9056 11.3737 29.6559 11.6756 29.3308 11.9427C29.0173 12.1981 28.6341 12.4013 28.1813 12.5523C27.7401 12.7032 27.2466 12.7787 26.7009 12.7787ZM32.2484 5.91644H30.7506V3.96575H32.2484V1.35323H34.53V3.96575H36.62V5.91644H34.53V9.22564C34.53 9.42303 34.5474 9.60881 34.5823 9.78297C34.6287 9.94553 34.71 10.0849 34.8261 10.201C34.9886 10.3868 35.2209 10.4796 35.5228 10.4796C35.7202 10.4796 35.8769 10.4622 35.993 10.4274C36.1091 10.381 36.2194 10.3229 36.3239 10.2532L36.9684 12.2562C36.7013 12.3839 36.411 12.4768 36.0975 12.5348C35.7956 12.6045 35.4589 12.6393 35.0873 12.6393C34.6577 12.6393 34.2688 12.5755 33.9204 12.4477C33.5837 12.3084 33.2992 12.1226 33.067 11.8904C32.5213 11.3679 32.2484 10.6248 32.2484 9.66106V5.91644ZM5.0359 29.7787C4.30439 29.7787 3.63675 29.6626 3.03296 29.4303C2.44079 29.1865 1.9357 28.8382 1.5177 28.3853C1.09969 27.9325 0.774581 27.3868 0.542357 26.7481C0.310132 26.0979 0.19402 25.3606 0.19402 24.5362V17.0296H2.54529V24.6755C2.54529 25.0935 2.59754 25.4767 2.70204 25.825C2.80654 26.1734 2.9633 26.4753 3.1723 26.7307C3.3813 26.9862 3.64255 27.1894 3.95606 27.3403C4.26956 27.4796 4.62951 27.5493 5.0359 27.5493C5.4539 27.5493 5.81966 27.4796 6.13316 27.3403C6.44666 27.1894 6.70791 26.9862 6.91692 26.7307C7.12592 26.4753 7.28267 26.1734 7.38717 25.825C7.49167 25.4767 7.54392 25.0935 7.54392 24.6755V17.0296H9.89519V24.5362C9.89519 25.3142 9.77908 26.0282 9.54686 26.6785C9.32624 27.3171 9.00113 27.8686 8.57151 28.3331C8.15351 28.7859 7.64262 29.1401 7.03883 29.3955C6.44666 29.6509 5.77902 29.7787 5.0359 29.7787ZM14.4226 29.5V19.2589H10.9393V17.0296H20.2573V19.2589H16.7739V29.5H14.4226ZM21.5811 17.0296H23.8975L27.7118 23.6305H27.8511L31.6654 17.0296H33.9993V29.5H31.6654V23.3519L31.8047 21.2618H31.6654L28.4955 26.8526H27.0848L23.8975 21.2618H23.7582L23.8975 23.3519V29.5H21.5811V17.0296ZM38.5176 19.2589V22.1501H43.5162V24.3795H38.5176V27.2706H44.0735V29.5H36.1663V17.0296H44.0735V19.2589H38.5176Z" fill="url(#paint0_linear_1_1624)"/>
<defs>
<linearGradient id="paint0_linear_1_1624" x1="-10.2406" y1="-12.0938" x2="60.5068" y2="9.47194" gradientUnits="userSpaceOnUse">
<stop offset="0.4" stop-color="#2F327D"/>
<stop offset="1" stop-color="#427FFF"/>
</linearGradient>
</defs>
</svg>
